<svg xmlns="http://www.w3.org/2000/svg" xmlns:xlink="http://www.w3.org/1999/xlink" width="498" zoomAndPan="magnify" viewBox="0 0 373.5 128.249994" height="171" preserveAspectRatio="xMidYMid meet" version="1.0"><defs><g/><clipPath id="f3818c80da"><path d="M 46 17 L 116 17 L 116 89 L 46 89 Z M 46 17 " clip-rule="nonzero"/></clipPath><clipPath id="189871f842"><path d="M -40.460938 -132.980469 L 361.519531 -186.320312 L 411.027344 186.347656 L 9.046875 239.6875 Z M -40.460938 -132.980469 " clip-rule="nonzero"/></clipPath><clipPath id="f9c91c2389"><path d="M -33.550781 -85.226562 L 317.9375 -180.183594 L 404.21875 138.828125 L 52.730469 233.785156 Z M -33.550781 -85.226562 " clip-rule="nonzero"/></clipPath><clipPath id="4a0e879607"><path d="M 44 12 L 120 12 L 120 89 L 44 89 Z M 44 12 " clip-rule="nonzero"/></clipPath><clipPath id="f7c7c27b95"><path d="M -88.398438 -142.265625 L 334.609375 -255.535156 L 441.769531 144.203125 L 18.765625 257.476562 Z M -88.398438 -142.265625 " clip-rule="nonzero"/></clipPath><clipPath id="1cef361fc3"><path d="M -63.902344 -51.089844 L 251.425781 -233.027344 L 416.738281 53.164062 L 101.410156 235.101562 Z M -63.902344 -51.089844 " clip-rule="nonzero"/></clipPath><clipPath id="06ae36060d"><path d="M 32.179688 0 L 142 0 L 142 104.527344 L 32.179688 104.527344 Z M 32.179688 0 " clip-rule="nonzero"/></clipPath><clipPath id="f72e1fcca1"><path d="M -88.398438 -142.265625 L 334.609375 -255.535156 L 441.769531 144.203125 L 18.765625 257.476562 Z M -88.398438 -142.265625 " clip-rule="nonzero"/></clipPath><clipPath id="838fd3b599"><path d="M -63.902344 -51.089844 L 251.425781 -233.027344 L 416.738281 53.164062 L 101.410156 235.101562 Z M -63.902344 -51.089844 " clip-rule="nonzero"/></clipPath></defs><path fill="#000000" d="M 305.636719 97.988281 L 304.722656 97.988281 L 304.722656 90.101562 L 305.636719 90.101562 Z M 301.601562 93.21875 C 301.234375 93.21875 300.929688 93.402344 300.746094 93.710938 C 300.5625 94.015625 300.5 94.566406 300.5 95.300781 C 300.5 96.03125 300.5625 96.582031 300.746094 96.886719 C 300.929688 97.195312 301.171875 97.378906 301.601562 97.378906 C 301.96875 97.378906 302.273438 97.195312 302.457031 96.886719 C 302.640625 96.582031 302.703125 96.03125 302.703125 95.300781 C 302.703125 94.566406 302.640625 94.015625 302.457031 93.710938 C 302.273438 93.34375 301.96875 93.21875 301.601562 93.21875 M 299.523438 95.238281 C 299.523438 94.257812 299.707031 93.527344 300.011719 93.097656 C 300.316406 92.671875 300.867188 92.425781 301.601562 92.425781 C 302.335938 92.425781 302.824219 92.671875 303.191406 93.097656 C 303.558594 93.527344 303.679688 94.257812 303.679688 95.300781 C 303.679688 96.339844 303.496094 97.011719 303.191406 97.5 C 302.886719 97.925781 302.335938 98.171875 301.601562 98.171875 C 300.867188 98.171875 300.378906 97.925781 300.011719 97.5 C 299.707031 97.011719 299.523438 96.277344 299.523438 95.238281 M 293.589844 97.988281 L 293.589844 90.101562 L 294.628906 90.101562 L 294.628906 93.464844 L 297.320312 93.464844 L 297.320312 90.101562 L 298.359375 90.101562 L 298.359375 97.988281 L 297.320312 97.988281 L 297.320312 94.382812 L 294.628906 94.382812 L 294.628906 97.988281 Z M 285.945312 96.339844 L 286.984375 96.339844 C 286.984375 96.644531 287.042969 96.949219 287.226562 97.070312 C 287.410156 97.195312 287.59375 97.316406 287.902344 97.316406 C 288.144531 97.316406 288.390625 97.253906 288.574219 97.132812 C 288.757812 97.011719 288.820312 96.828125 288.820312 96.582031 C 288.820312 96.398438 288.757812 96.277344 288.636719 96.15625 C 288.511719 96.03125 288.328125 95.847656 288.023438 95.726562 L 287.042969 95.238281 C 286.679688 95.054688 286.433594 94.871094 286.3125 94.6875 C 286.1875 94.503906 286.066406 94.257812 286.066406 93.953125 C 286.066406 93.464844 286.25 93.097656 286.617188 92.792969 C 286.984375 92.488281 287.410156 92.363281 287.960938 92.363281 C 288.511719 92.363281 288.941406 92.488281 289.246094 92.730469 C 289.550781 92.976562 289.734375 93.34375 289.734375 93.832031 L 289.734375 93.953125 L 288.757812 93.953125 C 288.757812 93.710938 288.695312 93.464844 288.511719 93.34375 C 288.328125 93.21875 288.144531 93.097656 287.839844 93.097656 C 287.59375 93.097656 287.410156 93.160156 287.226562 93.28125 C 287.105469 93.402344 286.984375 93.585938 286.984375 93.769531 C 286.984375 93.894531 287.042969 94.015625 287.105469 94.136719 C 287.167969 94.257812 287.351562 94.320312 287.535156 94.441406 L 288.453125 94.871094 C 289.003906 95.117188 289.308594 95.359375 289.492188 95.605469 C 289.675781 95.847656 289.796875 96.09375 289.796875 96.460938 C 289.796875 96.949219 289.613281 97.378906 289.246094 97.683594 C 288.878906 97.988281 288.390625 98.109375 287.839844 98.109375 C 287.226562 98.109375 286.738281 97.988281 286.433594 97.621094 C 286.128906 97.378906 285.945312 96.886719 285.945312 96.339844 M 283.007812 93.21875 C 282.640625 93.21875 282.335938 93.402344 282.152344 93.710938 C 281.96875 94.015625 281.90625 94.566406 281.90625 95.300781 C 281.90625 96.03125 281.96875 96.582031 282.152344 96.886719 C 282.335938 97.195312 282.578125 97.378906 283.007812 97.378906 C 283.375 97.378906 283.679688 97.195312 283.863281 96.886719 C 284.046875 96.582031 284.109375 96.03125 284.109375 95.300781 C 284.109375 94.566406 284.046875 94.015625 283.863281 93.710938 C 283.679688 93.34375 283.4375 93.21875 283.007812 93.21875 M 280.988281 95.238281 C 280.988281 94.257812 281.171875 93.527344 281.480469 93.097656 C 281.785156 92.671875 282.335938 92.425781 283.070312 92.425781 C 283.804688 92.425781 284.292969 92.671875 284.660156 93.097656 C 285.027344 93.527344 285.148438 94.257812 285.148438 95.300781 C 285.148438 96.339844 284.964844 97.011719 284.660156 97.5 C 284.355469 97.988281 283.804688 98.171875 283.070312 98.171875 C 282.335938 98.171875 281.847656 97.925781 281.480469 97.5 C 281.113281 97.011719 280.988281 96.277344 280.988281 95.238281 M 274.078125 93.160156 C 274.261719 92.914062 274.507812 92.671875 274.691406 92.546875 C 274.875 92.425781 275.179688 92.363281 275.484375 92.363281 C 275.851562 92.363281 276.097656 92.425781 276.339844 92.609375 C 276.585938 92.792969 276.769531 92.976562 276.890625 93.28125 C 277.074219 92.976562 277.257812 92.730469 277.503906 92.609375 C 277.75 92.488281 278.054688 92.363281 278.421875 92.363281 C 278.847656 92.363281 279.214844 92.488281 279.460938 92.730469 C 279.707031 92.976562 279.828125 93.34375 279.828125 93.832031 L 279.828125 97.988281 L 278.910156 97.988281 L 278.910156 94.503906 C 278.910156 93.953125 278.847656 93.585938 278.726562 93.402344 C 278.605469 93.21875 278.359375 93.097656 278.054688 93.097656 C 277.6875 93.097656 277.441406 93.21875 277.257812 93.527344 C 277.074219 93.832031 277.015625 94.257812 277.015625 94.808594 L 277.015625 97.988281 L 276.097656 97.988281 L 276.097656 94.503906 C 276.097656 93.953125 276.035156 93.585938 275.914062 93.402344 C 275.789062 93.21875 275.546875 93.097656 275.242188 93.097656 C 274.875 93.097656 274.628906 93.21875 274.445312 93.527344 C 274.261719 93.832031 274.199219 94.257812 274.199219 94.808594 L 274.199219 97.988281 L 273.285156 97.988281 L 273.285156 93.402344 C 273.285156 93.28125 273.285156 93.160156 273.285156 93.039062 C 273.285156 92.914062 273.285156 92.730469 273.222656 92.546875 L 274.199219 92.546875 Z M 269 92.546875 L 269 96.03125 C 269 96.582031 269.0625 96.949219 269.183594 97.132812 C 269.308594 97.316406 269.550781 97.4375 269.859375 97.4375 C 270.226562 97.4375 270.46875 97.316406 270.652344 97.011719 C 270.835938 96.703125 270.898438 96.277344 270.898438 95.726562 L 270.898438 92.546875 L 271.816406 92.546875 L 271.816406 97.132812 C 271.816406 97.253906 271.816406 97.378906 271.816406 97.5 C 271.816406 97.621094 271.816406 97.804688 271.875 97.988281 L 270.898438 97.988281 L 270.835938 97.378906 C 270.652344 97.621094 270.410156 97.867188 270.226562 97.988281 C 270.042969 98.109375 269.734375 98.171875 269.429688 98.171875 C 269 98.171875 268.636719 98.050781 268.328125 97.804688 C 268.023438 97.5625 267.960938 97.195312 267.960938 96.703125 L 267.960938 92.546875 Z M 263.191406 96.339844 L 264.230469 96.339844 C 264.230469 96.644531 264.292969 96.949219 264.476562 97.070312 C 264.660156 97.195312 264.84375 97.316406 265.148438 97.316406 C 265.394531 97.316406 265.636719 97.253906 265.820312 97.132812 C 266.003906 97.011719 266.066406 96.828125 266.066406 96.582031 C 266.066406 96.398438 266.003906 96.277344 265.882812 96.15625 C 265.761719 96.03125 265.578125 95.847656 265.269531 95.726562 L 264.292969 95.238281 C 263.925781 95.054688 263.679688 94.871094 263.558594 94.6875 C 263.4375 94.503906 263.3125 94.257812 263.3125 93.953125 C 263.3125 93.464844 263.496094 93.097656 263.863281 92.792969 C 264.230469 92.488281 264.660156 92.363281 265.210938 92.363281 C 265.761719 92.363281 266.1875 92.488281 266.496094 92.730469 C 266.800781 92.976562 266.984375 93.34375 266.984375 93.832031 L 266.984375 93.953125 L 266.003906 93.953125 C 266.003906 93.710938 265.945312 93.464844 265.761719 93.34375 C 265.578125 93.21875 265.394531 93.097656 265.085938 93.097656 C 264.84375 93.097656 264.660156 93.160156 264.476562 93.28125 C 264.351562 93.402344 264.230469 93.585938 264.230469 93.769531 C 264.230469 93.894531 264.292969 94.015625 264.351562 94.136719 C 264.414062 94.257812 264.597656 94.320312 264.78125 94.441406 L 265.699219 94.871094 C 266.25 95.117188 266.554688 95.359375 266.738281 95.605469 C 266.921875 95.847656 267.042969 96.09375 267.042969 96.460938 C 267.042969 96.949219 266.859375 97.378906 266.496094 97.683594 C 266.128906 97.988281 265.636719 98.109375 265.085938 98.109375 C 264.476562 98.109375 263.988281 97.988281 263.679688 97.621094 C 263.375 97.378906 263.191406 96.886719 263.191406 96.339844 M 261.234375 97.988281 L 261.234375 94.503906 C 261.234375 93.953125 261.171875 93.585938 261.050781 93.402344 C 260.929688 93.21875 260.683594 93.097656 260.378906 93.097656 C 260.011719 93.097656 259.765625 93.21875 259.582031 93.527344 C 259.398438 93.832031 259.339844 94.257812 259.339844 94.808594 L 259.339844 97.988281 L 258.421875 97.988281 L 258.421875 93.402344 C 258.421875 93.28125 258.421875 93.160156 258.421875 93.039062 C 258.421875 92.914062 258.421875 92.730469 258.359375 92.546875 L 259.339844 92.546875 L 259.398438 93.160156 C 259.582031 92.914062 259.828125 92.671875 260.011719 92.546875 C 260.195312 92.425781 260.5 92.363281 260.804688 92.363281 C 261.234375 92.363281 261.601562 92.488281 261.90625 92.730469 C 262.210938 92.976562 262.273438 93.34375 262.273438 93.832031 L 262.273438 97.988281 Z M 255.972656 90.164062 L 257.015625 90.164062 L 257.015625 98.050781 L 255.972656 98.050781 Z M 252.183594 96.277344 C 252.183594 96.886719 251.9375 97.316406 251.632812 97.621094 C 251.265625 97.925781 250.835938 98.109375 250.226562 98.109375 C 249.492188 98.109375 249 97.867188 248.632812 97.4375 C 248.328125 97.011719 248.144531 96.214844 248.144531 95.175781 C 248.144531 94.199219 248.328125 93.464844 248.632812 93.039062 C 248.941406 92.609375 249.492188 92.363281 250.164062 92.363281 C 250.835938 92.363281 251.324219 92.546875 251.632812 92.914062 C 251.9375 93.28125 252.121094 93.832031 252.121094 94.625 L 252.121094 95.480469 L 249.0625 95.480469 L 249.0625 95.789062 C 249.0625 96.339844 249.125 96.703125 249.308594 96.949219 C 249.492188 97.195312 249.734375 97.316406 250.164062 97.316406 C 250.46875 97.316406 250.714844 97.253906 250.835938 97.070312 C 251.019531 96.886719 251.140625 96.644531 251.140625 96.277344 Z M 249.183594 94.75 L 251.324219 94.75 L 251.324219 94.257812 C 251.324219 93.832031 251.265625 93.527344 251.082031 93.34375 C 250.898438 93.160156 250.652344 93.039062 250.347656 93.039062 C 249.980469 93.039062 249.734375 93.160156 249.492188 93.464844 C 249.246094 93.710938 249.183594 94.199219 249.183594 94.75 M 245.027344 93.160156 C 244.660156 93.160156 244.414062 93.34375 244.230469 93.648438 C 244.046875 93.953125 243.984375 94.503906 243.984375 95.175781 C 243.984375 95.972656 244.046875 96.582031 244.230469 96.886719 C 244.414062 97.195312 244.660156 97.378906 245.085938 97.378906 C 245.453125 97.378906 245.699219 97.195312 245.882812 96.886719 C 246.066406 96.582031 246.128906 95.972656 246.128906 95.238281 C 246.128906 94.503906 246.066406 93.953125 245.882812 93.648438 C 245.699219 93.34375 245.453125 93.160156 245.027344 93.160156 M 246.128906 93.097656 L 246.128906 90.101562 L 247.042969 90.101562 L 247.042969 96.949219 C 247.042969 97.253906 247.042969 97.4375 247.042969 97.5625 C 247.042969 97.683594 247.042969 97.804688 247.042969 97.925781 L 246.128906 97.925781 L 246.066406 97.378906 C 245.882812 97.621094 245.699219 97.742188 245.453125 97.867188 C 245.210938 97.988281 244.964844 98.050781 244.71875 98.050781 C 244.109375 98.050781 243.621094 97.804688 243.375 97.378906 C 243.128906 96.949219 242.945312 96.214844 242.945312 95.238281 C 242.945312 94.257812 243.070312 93.464844 243.375 93.039062 C 243.679688 92.546875 244.109375 92.304688 244.71875 92.304688 C 245.027344 92.304688 245.269531 92.363281 245.453125 92.488281 C 245.820312 92.671875 246.003906 92.855469 246.128906 93.097656 M 238.421875 95.117188 C 237.6875 95.117188 237.136719 95.175781 236.832031 95.359375 C 236.523438 95.542969 236.402344 95.847656 236.402344 96.277344 C 236.402344 96.519531 236.464844 96.765625 236.648438 96.949219 C 236.832031 97.132812 237.015625 97.195312 237.257812 97.195312 C 237.625 97.195312 237.929688 97.070312 238.113281 96.765625 C 238.296875 96.460938 238.421875 96.09375 238.421875 95.542969 Z M 236.585938 93.953125 L 235.605469 93.953125 L 235.605469 93.832031 C 235.605469 93.34375 235.789062 92.976562 236.097656 92.730469 C 236.402344 92.488281 236.890625 92.363281 237.5625 92.363281 C 238.175781 92.363281 238.664062 92.488281 238.972656 92.730469 C 239.277344 92.976562 239.398438 93.402344 239.398438 93.953125 L 239.398438 96.519531 C 239.398438 96.765625 239.398438 97.011719 239.398438 97.253906 C 239.398438 97.5 239.460938 97.742188 239.460938 97.988281 L 238.542969 97.988281 L 238.480469 97.316406 C 238.296875 97.5625 238.113281 97.742188 237.808594 97.867188 C 237.5625 97.988281 237.320312 98.050781 237.015625 98.050781 C 236.523438 98.050781 236.15625 97.925781 235.851562 97.5625 C 235.546875 97.253906 235.421875 96.828125 235.421875 96.339844 C 235.421875 95.726562 235.605469 95.238281 236.035156 94.933594 C 236.464844 94.625 237.074219 94.441406 237.871094 94.441406 L 238.421875 94.441406 L 238.421875 94.136719 C 238.421875 93.710938 238.359375 93.402344 238.238281 93.21875 C 238.113281 93.039062 237.871094 92.976562 237.5625 92.976562 C 237.257812 92.976562 236.953125 93.039062 236.832031 93.21875 C 236.707031 93.402344 236.585938 93.648438 236.585938 93.953125 Z M 233.464844 92.546875 L 234.382812 92.546875 L 234.382812 98.050781 L 233.464844 98.050781 Z M 233.464844 90.164062 L 234.382812 90.164062 L 234.382812 91.140625 L 233.464844 91.140625 Z M 231.082031 92.488281 L 231.140625 93.21875 C 231.265625 92.914062 231.386719 92.730469 231.632812 92.609375 C 231.875 92.488281 232.183594 92.363281 232.488281 92.363281 C 232.488281 92.363281 232.550781 92.363281 232.550781 92.363281 C 232.609375 92.363281 232.609375 92.363281 232.609375 92.363281 L 232.609375 93.34375 C 232.609375 93.34375 232.550781 93.34375 232.488281 93.34375 C 232.425781 93.34375 232.425781 93.34375 232.367188 93.34375 C 231.875 93.34375 231.570312 93.464844 231.386719 93.648438 C 231.203125 93.832031 231.082031 94.199219 231.082031 94.6875 L 231.082031 97.988281 L 230.164062 97.988281 L 230.164062 93.402344 C 230.164062 93.34375 230.164062 93.160156 230.101562 92.792969 C 230.101562 92.671875 230.101562 92.546875 230.101562 92.488281 Z M 226.554688 91.816406 L 227.65625 89.980469 L 228.757812 89.980469 L 227.226562 91.816406 Z M 228.082031 95.117188 C 227.351562 95.117188 226.800781 95.175781 226.492188 95.359375 C 226.1875 95.542969 226.066406 95.847656 226.066406 96.277344 C 226.066406 96.519531 226.125 96.765625 226.308594 96.949219 C 226.492188 97.132812 226.675781 97.195312 226.921875 97.195312 C 227.289062 97.195312 227.59375 97.070312 227.777344 96.765625 C 227.960938 96.460938 228.082031 96.09375 228.082031 95.542969 Z M 226.25 93.953125 L 225.269531 93.953125 L 225.269531 93.832031 C 225.269531 93.34375 225.453125 92.976562 225.757812 92.730469 C 226.066406 92.488281 226.554688 92.363281 227.226562 92.363281 C 227.839844 92.363281 228.328125 92.488281 228.632812 92.730469 C 228.941406 92.976562 229.0625 93.402344 229.0625 93.953125 L 229.0625 96.519531 C 229.0625 96.765625 229.0625 97.011719 229.0625 97.253906 C 229.0625 97.5 229.125 97.742188 229.125 97.988281 L 228.207031 97.988281 L 228.144531 97.316406 C 227.960938 97.5625 227.777344 97.742188 227.472656 97.867188 C 227.226562 97.988281 226.984375 98.050781 226.675781 98.050781 C 226.1875 98.050781 225.820312 97.925781 225.515625 97.5625 C 225.210938 97.253906 225.085938 96.828125 225.085938 96.339844 C 225.085938 95.726562 225.269531 95.238281 225.699219 94.933594 C 226.125 94.625 226.738281 94.441406 227.535156 94.441406 L 228.082031 94.441406 L 228.082031 94.136719 C 228.082031 93.710938 228.023438 93.402344 227.902344 93.21875 C 227.777344 93.039062 227.535156 92.976562 227.226562 92.976562 C 226.921875 92.976562 226.617188 93.039062 226.492188 93.21875 C 226.371094 93.402344 226.25 93.648438 226.25 93.953125 Z M 221.171875 92.546875 L 221.171875 96.03125 C 221.171875 96.582031 221.234375 96.949219 221.355469 97.132812 C 221.476562 97.316406 221.722656 97.4375 222.027344 97.4375 C 222.394531 97.4375 222.640625 97.316406 222.824219 97.011719 C 223.007812 96.703125 223.070312 96.277344 223.070312 95.726562 L 223.070312 92.546875 L 223.984375 92.546875 L 223.984375 97.132812 C 223.984375 97.253906 223.984375 97.378906 223.984375 97.5 C 223.984375 97.621094 223.984375 97.804688 224.046875 97.988281 L 223.070312 97.988281 L 223.007812 97.378906 C 222.824219 97.621094 222.578125 97.867188 222.394531 97.988281 C 222.210938 98.109375 221.90625 98.171875 221.601562 98.171875 C 221.171875 98.171875 220.804688 98.050781 220.5 97.804688 C 220.195312 97.5625 220.132812 97.195312 220.132812 96.703125 L 220.132812 92.546875 Z M 218.296875 96.15625 L 219.214844 96.15625 C 219.214844 96.765625 219.03125 97.253906 218.664062 97.621094 C 218.296875 97.988281 217.808594 98.171875 217.195312 98.171875 C 216.464844 98.171875 215.972656 97.925781 215.605469 97.5 C 215.238281 97.070312 215.117188 96.339844 215.117188 95.300781 C 215.117188 94.320312 215.300781 93.527344 215.605469 93.097656 C 215.914062 92.671875 216.464844 92.425781 217.195312 92.425781 C 217.808594 92.425781 218.238281 92.546875 218.605469 92.914062 C 218.96875 93.21875 219.152344 93.648438 219.152344 94.136719 L 219.152344 94.257812 L 218.238281 94.257812 C 218.238281 93.953125 218.175781 93.710938 217.992188 93.527344 C 217.808594 93.34375 217.5625 93.28125 217.257812 93.28125 C 216.828125 93.28125 216.523438 93.402344 216.339844 93.769531 C 216.15625 94.078125 216.097656 94.625 216.097656 95.359375 C 216.097656 96.09375 216.15625 96.644531 216.339844 96.949219 C 216.523438 97.253906 216.769531 97.4375 217.195312 97.4375 C 217.503906 97.4375 217.746094 97.316406 217.929688 97.132812 C 218.238281 96.765625 218.296875 96.519531 218.296875 96.15625 M 214.324219 96.277344 C 214.324219 96.886719 214.078125 97.316406 213.773438 97.621094 C 213.40625 97.925781 212.976562 98.109375 212.363281 98.109375 C 211.632812 98.109375 211.140625 97.867188 210.773438 97.4375 C 210.46875 97.011719 210.285156 96.214844 210.285156 95.175781 C 210.285156 94.199219 210.46875 93.464844 210.773438 93.039062 C 211.082031 92.609375 211.632812 92.363281 212.304688 92.363281 C 212.976562 92.363281 213.464844 92.546875 213.773438 92.914062 C 214.078125 93.28125 214.261719 93.832031 214.261719 94.625 L 214.261719 95.480469 L 211.203125 95.480469 L 211.203125 95.789062 C 211.203125 96.339844 211.265625 96.703125 211.449219 96.949219 C 211.632812 97.195312 211.875 97.316406 212.304688 97.316406 C 212.609375 97.316406 212.855469 97.253906 212.976562 97.070312 C 213.160156 96.886719 213.28125 96.644531 213.28125 96.277344 Z M 211.265625 94.75 L 213.40625 94.75 L 213.40625 94.257812 C 213.40625 93.832031 213.34375 93.527344 213.160156 93.34375 C 212.976562 93.160156 212.730469 93.039062 212.425781 93.039062 C 212.058594 93.039062 211.816406 93.160156 211.570312 93.464844 C 211.386719 93.710938 211.265625 94.199219 211.265625 94.75 M 205.269531 100.066406 L 205.269531 93.464844 C 205.269531 93.160156 205.269531 92.976562 205.269531 92.855469 C 205.269531 92.730469 205.269531 92.609375 205.210938 92.488281 L 206.1875 92.488281 L 206.25 93.039062 C 206.433594 92.792969 206.617188 92.671875 206.800781 92.546875 C 206.984375 92.425781 207.226562 92.363281 207.535156 92.363281 C 208.144531 92.363281 208.574219 92.609375 208.878906 93.039062 C 209.183594 93.464844 209.308594 94.199219 209.308594 95.175781 C 209.308594 96.15625 209.183594 96.949219 208.878906 97.378906 C 208.574219 97.867188 208.144531 98.109375 207.535156 98.109375 C 207.226562 98.109375 206.984375 98.050781 206.800781 97.925781 C 206.554688 97.804688 206.371094 97.621094 206.25 97.378906 L 206.25 100.066406 Z M 206.25 95.300781 C 206.25 96.03125 206.308594 96.519531 206.554688 96.828125 C 206.738281 97.132812 207.042969 97.316406 207.410156 97.316406 C 207.777344 97.316406 208.023438 97.132812 208.207031 96.828125 C 208.390625 96.519531 208.449219 95.972656 208.449219 95.238281 C 208.449219 94.441406 208.390625 93.894531 208.207031 93.527344 C 208.023438 93.160156 207.777344 93.039062 207.351562 93.039062 C 206.984375 93.039062 206.738281 93.21875 206.554688 93.585938 C 206.308594 93.953125 206.25 94.503906 206.25 95.300781 M 202.152344 93.21875 C 201.785156 93.21875 201.476562 93.402344 201.292969 93.710938 C 201.109375 94.015625 201.050781 94.566406 201.050781 95.300781 C 201.050781 96.03125 201.109375 96.582031 201.292969 96.886719 C 201.476562 97.195312 201.722656 97.378906 202.152344 97.378906 C 202.519531 97.378906 202.824219 97.195312 203.007812 96.886719 C 203.191406 96.582031 203.25 96.03125 203.25 95.300781 C 203.25 94.566406 203.191406 94.015625 203.007812 93.710938 C 202.824219 93.34375 202.578125 93.21875 202.152344 93.21875 M 200.132812 95.238281 C 200.132812 94.257812 200.316406 93.527344 200.621094 93.097656 C 200.925781 92.671875 201.476562 92.425781 202.210938 92.425781 C 202.945312 92.425781 203.433594 92.671875 203.800781 93.097656 C 204.167969 93.527344 204.292969 94.257812 204.292969 95.300781 C 204.292969 96.339844 204.109375 97.011719 203.800781 97.5 C 203.496094 97.988281 202.945312 98.171875 202.210938 98.171875 C 201.476562 98.171875 200.988281 97.925781 200.621094 97.5 C 200.253906 97.011719 200.132812 96.277344 200.132812 95.238281 M 197.929688 92.488281 L 197.992188 93.21875 C 198.113281 92.914062 198.238281 92.730469 198.480469 92.609375 C 198.726562 92.488281 199.03125 92.363281 199.335938 92.363281 C 199.335938 92.363281 199.398438 92.363281 199.398438 92.363281 C 199.460938 92.363281 199.460938 92.363281 199.460938 92.363281 L 199.460938 93.34375 C 199.460938 93.34375 199.398438 93.34375 199.335938 93.34375 C 199.277344 93.34375 199.277344 93.34375 199.214844 93.34375 C 198.726562 93.34375 198.421875 93.464844 198.238281 93.648438 C 198.054688 93.832031 197.929688 94.199219 197.929688 94.6875 L 197.929688 97.988281 L 197.011719 97.988281 L 197.011719 93.402344 C 197.011719 93.34375 197.011719 93.160156 196.953125 92.792969 C 196.953125 92.671875 196.953125 92.546875 196.953125 92.488281 Z M 192.121094 98.601562 L 193.222656 98.601562 C 193.222656 98.84375 193.28125 99.027344 193.464844 99.210938 C 193.589844 99.332031 193.773438 99.457031 194.015625 99.457031 C 194.382812 99.457031 194.628906 99.394531 194.75 99.210938 C 194.871094 99.027344 194.996094 98.722656 194.996094 98.234375 L 194.996094 97.4375 C 194.8125 97.683594 194.628906 97.867188 194.382812 97.988281 C 194.136719 98.109375 193.957031 98.171875 193.710938 98.171875 C 193.097656 98.171875 192.609375 97.925781 192.304688 97.4375 C 191.996094 96.949219 191.875 96.214844 191.875 95.238281 C 191.875 94.257812 191.996094 93.585938 192.304688 93.097656 C 192.609375 92.671875 193.039062 92.425781 193.648438 92.425781 C 193.957031 92.425781 194.199219 92.488281 194.382812 92.609375 C 194.566406 92.730469 194.8125 92.914062 194.996094 93.097656 L 195.054688 92.546875 L 195.972656 92.546875 C 195.972656 92.671875 195.972656 92.792969 195.914062 92.976562 C 195.914062 93.097656 195.914062 93.28125 195.914062 93.527344 L 195.914062 98.355469 C 195.914062 98.722656 195.914062 98.964844 195.851562 99.148438 C 195.789062 99.332031 195.730469 99.515625 195.605469 99.640625 C 195.421875 99.824219 195.238281 100.003906 194.996094 100.066406 C 194.75 100.128906 194.445312 100.1875 194.015625 100.1875 C 193.464844 100.1875 192.976562 100.066406 192.671875 99.824219 C 192.304688 99.457031 192.121094 99.089844 192.121094 98.601562 M 192.730469 95.238281 C 192.730469 95.972656 192.792969 96.519531 192.976562 96.828125 C 193.160156 97.132812 193.40625 97.316406 193.773438 97.316406 C 194.136719 97.316406 194.445312 97.132812 194.628906 96.828125 C 194.8125 96.519531 194.933594 95.972656 194.933594 95.238281 C 194.933594 94.441406 194.871094 93.894531 194.6875 93.585938 C 194.503906 93.28125 194.199219 93.097656 193.832031 93.097656 C 193.464844 93.097656 193.160156 93.28125 192.976562 93.585938 C 192.855469 93.832031 192.730469 94.441406 192.730469 95.238281 M 190.039062 97.988281 L 189.492188 96.09375 L 186.738281 96.09375 L 186.1875 97.988281 L 185.085938 97.988281 L 187.53125 90.101562 L 188.757812 90.101562 L 191.140625 97.988281 Z M 186.984375 95.175781 L 189.246094 95.175781 L 188.144531 91.386719 Z M 180.742188 95.117188 C 180.011719 95.117188 179.460938 95.175781 179.152344 95.359375 C 178.847656 95.542969 178.726562 95.847656 178.726562 96.277344 C 178.726562 96.519531 178.785156 96.765625 178.96875 96.949219 C 179.152344 97.132812 179.335938 97.195312 179.582031 97.195312 C 179.949219 97.195312 180.253906 97.070312 180.4375 96.765625 C 180.621094 96.460938 180.742188 96.09375 180.742188 95.542969 Z M 178.910156 93.953125 L 177.929688 93.953125 L 177.929688 93.832031 C 177.929688 93.34375 178.113281 92.976562 178.417969 92.730469 C 178.726562 92.488281 179.214844 92.363281 179.886719 92.363281 C 180.5 92.363281 180.988281 92.488281 181.292969 92.730469 C 181.601562 92.976562 181.722656 93.402344 181.722656 93.953125 L 181.722656 96.519531 C 181.722656 96.765625 181.722656 97.011719 181.722656 97.253906 C 181.722656 97.5 181.785156 97.742188 181.785156 97.988281 L 180.804688 97.988281 L 180.742188 97.316406 C 180.558594 97.5625 180.378906 97.742188 180.070312 97.867188 C 179.828125 97.988281 179.582031 98.050781 179.277344 98.050781 C 178.785156 98.050781 178.417969 97.925781 178.113281 97.5625 C 177.808594 97.253906 177.6875 96.828125 177.6875 96.339844 C 177.6875 95.726562 177.871094 95.238281 178.296875 94.933594 C 178.726562 94.625 179.335938 94.441406 180.132812 94.441406 L 180.683594 94.441406 L 180.683594 94.136719 C 180.683594 93.710938 180.621094 93.402344 180.5 93.21875 C 180.378906 93.039062 180.132812 92.976562 179.828125 92.976562 C 179.519531 92.976562 179.214844 93.039062 179.09375 93.21875 C 178.96875 93.402344 178.910156 93.648438 178.910156 93.953125 Z M 174.382812 97.988281 L 172.671875 92.488281 L 173.769531 92.488281 L 174.628906 95.664062 C 174.6875 95.910156 174.75 96.214844 174.8125 96.460938 C 174.871094 96.765625 174.933594 97.011719 174.933594 97.316406 C 175.054688 96.828125 175.179688 96.339844 175.300781 95.847656 C 175.300781 95.789062 175.363281 95.726562 175.363281 95.664062 L 176.21875 92.488281 L 177.195312 92.488281 L 175.484375 97.988281 Z M 170.957031 92.546875 L 171.875 92.546875 L 171.875 98.050781 L 170.957031 98.050781 Z M 170.957031 90.164062 L 171.875 90.164062 L 171.875 91.140625 L 170.957031 91.140625 Z M 169 90.957031 L 169 92.488281 L 170.101562 92.488281 L 170.101562 93.160156 L 169 93.160156 L 169 96.460938 C 169 96.765625 169.0625 96.949219 169.125 97.070312 C 169.183594 97.195312 169.367188 97.253906 169.613281 97.253906 C 169.671875 97.253906 169.855469 97.253906 170.039062 97.253906 L 170.039062 97.988281 C 169.917969 97.988281 169.734375 98.050781 169.613281 98.050781 C 169.488281 98.050781 169.367188 98.050781 169.246094 98.050781 C 168.757812 98.050781 168.449219 97.988281 168.265625 97.742188 C 168.082031 97.5625 167.960938 97.253906 167.960938 96.765625 L 167.960938 93.160156 L 167.105469 93.160156 L 167.105469 92.488281 L 167.960938 92.488281 L 167.960938 91.386719 Z M 165.636719 95.117188 C 164.902344 95.117188 164.351562 95.175781 164.046875 95.359375 C 163.742188 95.542969 163.617188 95.847656 163.617188 96.277344 C 163.617188 96.519531 163.679688 96.765625 163.863281 96.949219 C 164.046875 97.132812 164.230469 97.195312 164.476562 97.195312 C 164.839844 97.195312 165.148438 97.070312 165.332031 96.765625 C 165.515625 96.460938 165.636719 96.09375 165.636719 95.542969 Z M 163.800781 93.953125 L 162.824219 93.953125 L 162.824219 93.832031 C 162.824219 93.34375 163.007812 92.976562 163.3125 92.730469 C 163.617188 92.488281 164.109375 92.363281 164.78125 92.363281 C 165.390625 92.363281 165.882812 92.488281 166.1875 92.730469 C 166.492188 92.976562 166.617188 93.402344 166.617188 93.953125 L 166.617188 96.519531 C 166.617188 96.765625 166.617188 97.011719 166.617188 97.253906 C 166.617188 97.5 166.675781 97.742188 166.675781 97.988281 L 165.757812 97.988281 L 165.699219 97.316406 C 165.515625 97.5625 165.332031 97.742188 165.023438 97.867188 C 164.78125 97.988281 164.535156 98.050781 164.230469 98.050781 C 163.742188 98.050781 163.375 97.925781 163.066406 97.5625 C 162.761719 97.253906 162.640625 96.828125 162.640625 96.339844 C 162.640625 95.726562 162.824219 95.238281 163.25 94.933594 C 163.679688 94.625 164.292969 94.441406 165.085938 94.441406 L 165.636719 94.441406 L 165.636719 94.136719 C 165.636719 93.710938 165.574219 93.402344 165.453125 93.21875 C 165.332031 93.039062 165.085938 92.976562 164.78125 92.976562 C 164.476562 92.976562 164.167969 93.039062 164.046875 93.21875 C 163.925781 93.402344 163.800781 93.648438 163.800781 93.953125 Z M 160.558594 92.488281 L 160.621094 93.21875 C 160.742188 92.914062 160.867188 92.730469 161.109375 92.609375 C 161.355469 92.488281 161.660156 92.363281 161.96875 92.363281 C 161.96875 92.363281 162.027344 92.363281 162.027344 92.363281 C 162.089844 92.363281 162.089844 92.363281 162.089844 92.363281 L 162.089844 93.34375 C 162.027344 93.34375 162.027344 93.34375 161.96875 93.34375 C 161.90625 93.34375 161.90625 93.34375 161.84375 93.34375 C 161.355469 93.34375 161.050781 93.464844 160.867188 93.648438 C 160.683594 93.832031 160.558594 94.199219 160.558594 94.6875 L 160.558594 97.988281 L 159.644531 97.988281 L 159.644531 93.402344 C 159.644531 93.34375 159.644531 93.160156 159.582031 92.792969 C 159.582031 92.671875 159.582031 92.546875 159.519531 92.488281 Z M 158.664062 96.277344 C 158.601562 96.886719 158.417969 97.316406 158.113281 97.621094 C 157.746094 97.925781 157.320312 98.109375 156.707031 98.109375 C 155.972656 98.109375 155.421875 97.867188 155.117188 97.4375 C 154.8125 97.011719 154.628906 96.214844 154.628906 95.175781 C 154.628906 94.199219 154.8125 93.464844 155.117188 93.039062 C 155.421875 92.609375 155.972656 92.363281 156.707031 92.363281 C 157.378906 92.363281 157.867188 92.546875 158.175781 92.914062 C 158.480469 93.28125 158.664062 93.832031 158.664062 94.625 L 158.664062 95.480469 L 155.605469 95.480469 L 155.605469 95.789062 C 155.605469 96.339844 155.667969 96.703125 155.851562 96.949219 C 156.035156 97.195312 156.277344 97.316406 156.707031 97.316406 C 157.011719 97.316406 157.257812 97.253906 157.378906 97.070312 C 157.5625 96.886719 157.6875 96.644531 157.746094 96.277344 Z M 155.667969 94.75 L 157.808594 94.75 L 157.808594 94.257812 C 157.808594 93.832031 157.746094 93.527344 157.5625 93.34375 C 157.378906 93.160156 157.136719 93.039062 156.828125 93.039062 C 156.460938 93.039062 156.15625 93.160156 155.972656 93.464844 C 155.726562 93.710938 155.667969 94.199219 155.667969 94.75 M 149.671875 100.066406 L 149.671875 93.464844 C 149.671875 93.160156 149.671875 92.976562 149.671875 92.855469 C 149.671875 92.730469 149.671875 92.609375 149.613281 92.488281 L 150.589844 92.488281 L 150.652344 93.039062 C 150.835938 92.792969 151.019531 92.671875 151.203125 92.546875 C 151.386719 92.425781 151.628906 92.363281 151.9375 92.363281 C 152.546875 92.363281 152.976562 92.609375 153.28125 93.039062 C 153.585938 93.464844 153.710938 94.199219 153.710938 95.175781 C 153.710938 96.15625 153.585938 96.949219 153.28125 97.378906 C 152.976562 97.867188 152.546875 98.109375 151.9375 98.109375 C 151.628906 98.109375 151.386719 98.050781 151.203125 97.925781 C 151.019531 97.804688 150.773438 97.621094 150.652344 97.378906 L 150.652344 100.066406 Z M 150.589844 95.300781 C 150.589844 96.03125 150.652344 96.519531 150.835938 96.828125 C 151.019531 97.132812 151.324219 97.316406 151.691406 97.316406 C 152.058594 97.316406 152.304688 97.132812 152.488281 96.828125 C 152.671875 96.519531 152.730469 95.972656 152.730469 95.238281 C 152.730469 94.441406 152.671875 93.894531 152.488281 93.527344 C 152.304688 93.21875 152.058594 93.039062 151.628906 93.039062 C 151.261719 93.039062 151.019531 93.21875 150.835938 93.585938 C 150.714844 93.953125 150.589844 94.503906 150.589844 95.300781 M 146.554688 93.21875 C 146.1875 93.21875 145.882812 93.402344 145.699219 93.710938 C 145.515625 94.015625 145.453125 94.566406 145.453125 95.300781 C 145.453125 96.03125 145.515625 96.582031 145.699219 96.886719 C 145.882812 97.195312 146.125 97.378906 146.554688 97.378906 C 146.921875 97.378906 147.226562 97.195312 147.410156 96.886719 C 147.59375 96.582031 147.65625 96.03125 147.65625 95.300781 C 147.65625 94.566406 147.59375 94.015625 147.410156 93.710938 C 147.226562 93.34375 146.921875 93.21875 146.554688 93.21875 M 144.472656 95.238281 C 144.472656 94.257812 144.65625 93.527344 144.964844 93.097656 C 145.269531 92.671875 145.820312 92.425781 146.554688 92.425781 C 147.289062 92.425781 147.777344 92.671875 148.144531 93.097656 C 148.511719 93.527344 148.632812 94.257812 148.632812 95.300781 C 148.632812 96.339844 148.449219 97.011719 148.144531 97.5 C 147.839844 97.925781 147.289062 98.171875 146.554688 98.171875 C 145.820312 98.171875 145.332031 97.925781 144.964844 97.5 C 144.65625 97.011719 144.472656 96.277344 144.472656 95.238281 M 141.476562 93.21875 C 141.109375 93.21875 140.804688 93.402344 140.621094 93.710938 C 140.4375 94.015625 140.375 94.566406 140.375 95.300781 C 140.375 96.03125 140.4375 96.582031 140.621094 96.886719 C 140.804688 97.195312 141.050781 97.378906 141.476562 97.378906 C 141.84375 97.378906 142.148438 97.195312 142.332031 96.886719 C 142.515625 96.582031 142.578125 96.03125 142.578125 95.300781 C 142.578125 94.566406 142.515625 94.015625 142.332031 93.710938 C 142.148438 93.34375 141.84375 93.21875 141.476562 93.21875 M 139.398438 95.238281 C 139.398438 94.257812 139.582031 93.527344 139.886719 93.097656 C 140.191406 92.671875 140.742188 92.425781 141.476562 92.425781 C 142.210938 92.425781 142.699219 92.671875 143.066406 93.097656 C 143.433594 93.527344 143.558594 94.257812 143.558594 95.300781 C 143.558594 96.339844 143.375 97.011719 143.066406 97.5 C 142.761719 97.925781 142.210938 98.171875 141.476562 98.171875 C 140.742188 98.171875 140.253906 97.925781 139.886719 97.5 C 139.582031 97.011719 139.398438 96.277344 139.398438 95.238281 M 138.359375 95.542969 L 138.359375 95.726562 C 138.359375 96.460938 138.175781 97.070312 137.746094 97.5 C 137.320312 97.925781 136.828125 98.109375 136.09375 98.109375 C 135.726562 98.109375 135.421875 98.050781 135.179688 97.988281 C 134.871094 97.867188 134.628906 97.742188 134.503906 97.621094 C 134.199219 97.316406 134.015625 96.949219 133.894531 96.460938 C 133.769531 95.972656 133.710938 95.117188 133.710938 93.953125 C 133.710938 93.160156 133.769531 92.546875 133.832031 92.121094 C 133.894531 91.691406 134.015625 91.324219 134.199219 91.019531 C 134.382812 90.714844 134.628906 90.53125 134.996094 90.347656 C 135.359375 90.164062 135.726562 90.101562 136.15625 90.101562 C 136.890625 90.101562 137.441406 90.285156 137.808594 90.714844 C 138.175781 91.082031 138.359375 91.691406 138.359375 92.488281 L 137.257812 92.488281 L 137.257812 92.363281 C 137.257812 91.875 137.195312 91.570312 136.953125 91.324219 C 136.769531 91.082031 136.460938 90.957031 136.09375 90.957031 C 135.851562 90.957031 135.667969 91.019531 135.484375 91.082031 C 135.300781 91.140625 135.175781 91.324219 135.054688 91.507812 C 134.933594 91.691406 134.871094 91.9375 134.8125 92.304688 C 134.75 92.671875 134.75 93.34375 134.75 94.382812 C 134.75 95.605469 134.871094 96.339844 135.054688 96.765625 C 135.238281 97.195312 135.605469 97.378906 136.09375 97.378906 C 136.523438 97.378906 136.769531 97.253906 137.011719 97.011719 C 137.257812 96.765625 137.320312 96.339844 137.320312 95.789062 L 137.320312 95.726562 Z M 138.359375 95.542969 " fill-opacity="1" fill-rule="nonzero"/><path fill="#000000" d="M 330.777344 95.117188 C 330.042969 95.117188 329.492188 95.175781 329.1875 95.359375 C 328.878906 95.542969 328.757812 95.847656 328.757812 96.277344 C 328.757812 96.519531 328.820312 96.765625 329.003906 96.949219 C 329.1875 97.132812 329.371094 97.195312 329.613281 97.195312 C 329.980469 97.195312 330.285156 97.070312 330.46875 96.765625 C 330.652344 96.460938 330.777344 96.09375 330.777344 95.542969 Z M 328.941406 93.953125 L 327.960938 93.953125 L 327.960938 93.832031 C 327.960938 93.34375 328.144531 92.976562 328.453125 92.730469 C 328.757812 92.488281 329.246094 92.363281 329.917969 92.363281 C 330.53125 92.363281 331.019531 92.488281 331.328125 92.730469 C 331.632812 92.976562 331.753906 93.402344 331.753906 93.953125 L 331.753906 96.519531 C 331.753906 96.765625 331.753906 97.011719 331.753906 97.253906 C 331.753906 97.5 331.816406 97.742188 331.816406 97.988281 L 330.898438 97.988281 L 330.835938 97.316406 C 330.652344 97.5625 330.410156 97.742188 330.164062 97.867188 C 329.917969 97.988281 329.675781 98.050781 329.371094 98.050781 C 328.878906 98.050781 328.511719 97.925781 328.207031 97.5625 C 327.902344 97.195312 327.777344 96.828125 327.777344 96.339844 C 327.777344 95.726562 327.960938 95.238281 328.390625 94.933594 C 328.820312 94.625 329.429688 94.441406 330.226562 94.441406 L 330.777344 94.441406 L 330.777344 94.136719 C 330.777344 93.710938 330.714844 93.402344 330.59375 93.21875 C 330.46875 93.039062 330.226562 92.976562 329.917969 92.976562 C 329.613281 92.976562 329.308594 93.039062 329.1875 93.160156 C 329.003906 93.402344 328.941406 93.648438 328.941406 93.953125 Z M 325.699219 92.488281 L 325.761719 93.21875 C 325.882812 92.914062 326.003906 92.730469 326.25 92.609375 C 326.496094 92.488281 326.800781 92.363281 327.105469 92.363281 C 327.105469 92.363281 327.167969 92.363281 327.167969 92.363281 C 327.230469 92.363281 327.230469 92.363281 327.289062 92.363281 L 327.289062 93.34375 C 327.289062 93.34375 327.230469 93.34375 327.167969 93.34375 C 327.105469 93.34375 327.046875 93.34375 327.046875 93.34375 C 326.554688 93.34375 326.25 93.464844 326.003906 93.648438 C 325.761719 93.832031 325.699219 94.199219 325.699219 94.6875 L 325.699219 97.988281 L 324.78125 97.988281 L 324.78125 93.402344 C 324.78125 93.34375 324.78125 93.160156 324.722656 92.792969 C 324.722656 92.671875 324.722656 92.546875 324.722656 92.488281 Z M 319.644531 97.988281 C 319.644531 97.867188 319.644531 97.742188 319.707031 97.5625 C 319.707031 97.4375 319.707031 97.195312 319.707031 97.011719 L 319.707031 90.164062 L 320.625 90.164062 L 320.625 93.160156 C 320.808594 92.914062 320.988281 92.730469 321.171875 92.609375 C 321.355469 92.488281 321.664062 92.425781 321.90625 92.425781 C 322.519531 92.425781 322.949219 92.671875 323.253906 93.160156 C 323.558594 93.648438 323.679688 94.382812 323.679688 95.359375 C 323.679688 96.339844 323.558594 97.011719 323.253906 97.5 C 322.949219 97.988281 322.519531 98.171875 321.847656 98.171875 C 321.539062 98.171875 321.296875 98.109375 321.113281 97.988281 C 320.929688 97.867188 320.746094 97.742188 320.625 97.5 L 320.5 97.988281 Z M 321.785156 93.160156 C 321.417969 93.160156 321.113281 93.34375 320.929688 93.648438 C 320.746094 93.953125 320.683594 94.503906 320.683594 95.175781 C 320.683594 95.972656 320.746094 96.519531 320.929688 96.886719 C 321.113281 97.253906 321.355469 97.378906 321.722656 97.378906 C 322.152344 97.378906 322.398438 97.253906 322.582031 96.886719 C 322.765625 96.519531 322.824219 96.03125 322.824219 95.175781 C 322.824219 94.441406 322.765625 93.953125 322.582031 93.585938 C 322.398438 93.34375 322.152344 93.160156 321.785156 93.160156 M 312.734375 93.160156 C 312.917969 92.914062 313.160156 92.671875 313.34375 92.546875 C 313.589844 92.425781 313.835938 92.363281 314.140625 92.363281 C 314.507812 92.363281 314.75 92.425781 315.058594 92.609375 C 315.300781 92.792969 315.484375 92.976562 315.609375 93.28125 C 315.792969 92.976562 315.976562 92.730469 316.21875 92.609375 C 316.464844 92.488281 316.769531 92.363281 317.136719 92.363281 C 317.566406 92.363281 317.933594 92.488281 318.175781 92.730469 C 318.421875 92.976562 318.542969 93.34375 318.542969 93.832031 L 318.542969 97.988281 L 317.625 97.988281 L 317.625 94.503906 C 317.625 93.953125 317.566406 93.585938 317.441406 93.402344 C 317.320312 93.21875 317.074219 93.097656 316.769531 93.097656 C 316.402344 93.097656 316.160156 93.21875 315.976562 93.527344 C 315.792969 93.832031 315.730469 94.257812 315.730469 94.808594 L 315.730469 97.988281 L 314.8125 97.988281 L 314.8125 94.503906 C 314.8125 93.953125 314.75 93.585938 314.628906 93.402344 C 314.507812 93.21875 314.261719 93.097656 313.957031 93.097656 C 313.589844 93.097656 313.34375 93.21875 313.160156 93.527344 C 312.976562 93.832031 312.917969 94.257812 312.917969 94.808594 L 312.917969 97.988281 L 312 97.988281 L 312 93.402344 C 312 93.28125 312 93.160156 312 93.039062 C 312 92.914062 312 92.730469 311.9375 92.546875 L 312.917969 92.546875 Z M 309.613281 95.117188 C 308.878906 95.117188 308.328125 95.175781 308.023438 95.359375 C 307.71875 95.542969 307.59375 95.847656 307.59375 96.277344 C 307.59375 96.519531 307.65625 96.765625 307.839844 96.949219 C 308.023438 97.132812 308.207031 97.195312 308.453125 97.195312 C 308.820312 97.195312 309.125 97.070312 309.308594 96.765625 C 309.492188 96.460938 309.613281 96.09375 309.613281 95.542969 Z M 307.777344 93.953125 L 306.800781 93.953125 L 306.800781 93.832031 C 306.800781 93.34375 306.984375 92.976562 307.289062 92.730469 C 307.59375 92.488281 308.085938 92.363281 308.757812 92.363281 C 309.371094 92.363281 309.859375 92.488281 310.164062 92.730469 C 310.46875 92.976562 310.59375 93.402344 310.59375 93.953125 L 310.59375 96.519531 C 310.59375 96.765625 310.59375 97.011719 310.59375 97.253906 C 310.59375 97.5 310.652344 97.742188 310.652344 97.988281 L 309.734375 97.988281 L 309.675781 97.316406 C 309.492188 97.5625 309.308594 97.742188 309.003906 97.867188 C 308.757812 97.988281 308.511719 98.050781 308.207031 98.050781 C 307.71875 98.050781 307.351562 97.925781 307.046875 97.5625 C 306.738281 97.253906 306.617188 96.828125 306.617188 96.339844 C 306.617188 95.726562 306.800781 95.238281 307.230469 94.933594 C 307.65625 94.625 308.269531 94.441406 309.0625 94.441406 L 309.613281 94.441406 L 309.613281 94.136719 C 309.613281 93.710938 309.550781 93.402344 309.429688 93.21875 C 309.308594 93.039062 309.0625 92.976562 308.757812 92.976562 C 308.453125 92.976562 308.144531 93.039062 308.023438 93.160156 C 307.839844 93.402344 307.777344 93.648438 307.777344 93.953125 Z M 307.777344 93.953125 " fill-opacity="1" fill-rule="nonzero"/><g clip-path="url(#f3818c80da)"><g clip-path="url(#189871f842)"><g clip-path="url(#f9c91c2389)"><path fill="#ef781a" d="M 46.285156 25.828125 L 107.097656 17.757812 L 115.382812 80.113281 L 54.570312 88.183594 Z M 46.285156 25.828125 " fill-opacity="1" fill-rule="evenodd"/></g></g></g><g clip-path="url(#4a0e879607)"><g clip-path="url(#f7c7c27b95)"><g clip-path="url(#1cef361fc3)"><path fill="#ffffff" d="M 44.046875 28.195312 L 103.304688 12.328125 L 119.59375 73.085938 L 60.335938 88.953125 Z M 44.046875 28.195312 " fill-opacity="1" fill-rule="evenodd"/></g></g></g><g clip-path="url(#06ae36060d)"><g clip-path="url(#f72e1fcca1)"><g clip-path="url(#838fd3b599)"><path stroke-linecap="butt" transform="matrix(0.59079, -0.158201, 0.158291, 0.590456, 20.763711, 14.56105)" fill="none" stroke-linejoin="miter" d="M 30.998191 31.396429 L 131.300588 31.397733 L 131.302167 134.297953 L 30.999769 134.296648 Z M 30.998191 31.396429 " stroke="#ef781a" stroke-width="1.101" stroke-opacity="1" stroke-miterlimit="22.924999"/></g></g></g><path fill="#ef781a" d="M 328.390625 73.539062 C 327.777344 74.453125 326.921875 75.125 325.882812 75.675781 C 324.84375 76.164062 323.679688 76.410156 322.457031 76.410156 C 320.195312 76.410156 318.300781 75.617188 316.769531 74.085938 C 315.242188 72.558594 314.507812 70.601562 314.507812 68.339844 C 314.507812 66.019531 315.300781 64.0625 316.832031 62.535156 C 318.359375 60.945312 320.316406 60.210938 322.640625 60.210938 C 323.863281 60.210938 324.964844 60.457031 325.945312 60.945312 C 326.921875 61.433594 327.777344 62.105469 328.453125 63.023438 L 328.453125 60.515625 L 330.410156 60.515625 L 330.410156 76.042969 L 328.453125 76.042969 L 328.453125 73.539062 Z M 328.390625 68.097656 C 328.390625 66.445312 327.777344 65.039062 326.617188 63.757812 C 325.453125 62.535156 324.109375 61.921875 322.519531 61.921875 C 320.867188 61.921875 319.398438 62.535156 318.238281 63.757812 C 317.074219 64.980469 316.464844 66.507812 316.464844 68.339844 C 316.464844 70.054688 317.074219 71.519531 318.238281 72.742188 C 319.398438 73.964844 320.808594 74.515625 322.457031 74.515625 C 324.046875 74.515625 325.394531 73.902344 326.617188 72.621094 C 327.839844 71.398438 328.390625 69.871094 328.390625 68.097656 M 310.347656 75.980469 L 308.328125 75.980469 L 308.328125 60.457031 L 310.226562 60.457031 L 310.226562 62.230469 C 310.714844 61.554688 311.265625 61.007812 311.816406 60.699219 C 312.367188 60.394531 313.039062 60.210938 313.835938 60.210938 L 313.835938 62.351562 C 312.609375 62.472656 311.695312 62.839844 311.144531 63.449219 C 310.59375 64.0625 310.347656 65.101562 310.347656 66.570312 Z M 292 68.402344 C 292 70.054688 292.609375 71.519531 293.773438 72.742188 C 294.933594 73.964844 296.28125 74.578125 297.808594 74.578125 C 299.460938 74.578125 300.929688 73.964844 302.089844 72.742188 C 303.253906 71.519531 303.863281 69.992188 303.863281 68.15625 C 303.863281 66.445312 303.253906 64.980469 302.089844 63.816406 C 300.929688 62.59375 299.523438 62.046875 297.871094 62.046875 C 296.21875 62.046875 294.875 62.65625 293.710938 63.878906 C 292.550781 65.039062 292 66.570312 292 68.402344 M 292 55.441406 L 292 63.085938 C 292.855469 62.105469 293.773438 61.3125 294.75 60.882812 C 295.730469 60.394531 296.890625 60.148438 298.117188 60.148438 C 300.316406 60.148438 302.152344 60.945312 303.679688 62.535156 C 305.210938 64.125 305.945312 66.019531 305.945312 68.28125 C 305.945312 70.601562 305.148438 72.558594 303.621094 74.085938 C 302.089844 75.675781 300.132812 76.472656 297.808594 76.472656 C 296.648438 76.472656 295.609375 76.226562 294.628906 75.800781 C 293.652344 75.308594 292.792969 74.636719 292 73.71875 L 292 76.105469 L 290.042969 76.105469 L 290.042969 55.441406 Z M 275.363281 62.902344 C 275.972656 61.984375 276.769531 61.3125 277.75 60.824219 C 278.664062 60.332031 279.707031 60.148438 280.867188 60.148438 C 283.007812 60.148438 284.539062 60.761719 285.453125 62.046875 C 286.433594 63.328125 286.921875 65.347656 286.921875 68.15625 L 286.921875 75.980469 L 285.027344 75.980469 L 285.027344 67.730469 C 285.027344 65.652344 284.71875 64.183594 283.988281 63.328125 C 283.3125 62.472656 282.214844 62.046875 280.683594 62.046875 C 279.765625 62.046875 279.03125 62.230469 278.359375 62.59375 C 277.6875 62.960938 277.136719 63.449219 276.769531 64.183594 C 276.523438 64.613281 276.339844 65.101562 276.28125 65.652344 C 276.15625 66.203125 276.15625 67.117188 276.15625 68.464844 L 276.15625 76.042969 L 274.261719 76.042969 L 274.261719 67.363281 C 274.261719 65.589844 273.894531 64.246094 273.160156 63.390625 C 272.425781 62.535156 271.324219 62.105469 269.796875 62.105469 C 268.878906 62.105469 268.085938 62.289062 267.410156 62.65625 C 266.738281 63.023438 266.1875 63.511719 265.820312 64.246094 C 265.578125 64.671875 265.394531 65.164062 265.269531 65.710938 C 265.148438 66.261719 265.148438 67.179688 265.148438 68.523438 L 265.148438 76.105469 L 263.191406 76.105469 L 263.191406 60.457031 L 265.148438 60.457031 L 265.148438 62.230469 C 265.761719 61.554688 266.433594 61.007812 267.226562 60.699219 C 268.023438 60.332031 268.941406 60.148438 269.980469 60.148438 C 271.140625 60.148438 272.242188 60.394531 273.222656 60.882812 C 274.078125 61.371094 274.8125 62.046875 275.363281 62.902344 M 258.054688 73.539062 C 257.441406 74.453125 256.585938 75.125 255.546875 75.675781 C 254.507812 76.164062 253.34375 76.410156 252.121094 76.410156 C 249.859375 76.410156 247.960938 75.617188 246.433594 74.085938 C 244.902344 72.558594 244.167969 70.601562 244.167969 68.339844 C 244.167969 66.019531 244.964844 64.0625 246.492188 62.535156 C 248.023438 60.945312 249.980469 60.210938 252.304688 60.210938 C 253.527344 60.210938 254.628906 60.457031 255.605469 60.945312 C 256.585938 61.433594 257.441406 62.105469 258.113281 63.023438 L 258.113281 60.515625 L 260.070312 60.515625 L 260.070312 76.042969 L 258.113281 76.042969 Z M 258.054688 68.097656 C 258.054688 66.445312 257.441406 65.039062 256.28125 63.757812 C 255.117188 62.535156 253.773438 61.921875 252.183594 61.921875 C 250.53125 61.921875 249.0625 62.535156 247.902344 63.757812 C 246.738281 64.980469 246.128906 66.507812 246.128906 68.339844 C 246.128906 70.054688 246.738281 71.519531 247.902344 72.742188 C 249.0625 73.964844 250.46875 74.515625 252.121094 74.515625 C 253.710938 74.515625 255.117188 73.902344 256.28125 72.621094 C 257.441406 71.398438 258.054688 69.871094 258.054688 68.097656 M 239.644531 55.441406 L 241.660156 55.441406 L 241.660156 76.042969 L 239.644531 76.042969 Z M 221.234375 68.21875 C 221.234375 65.957031 222.027344 64 223.558594 62.351562 C 225.148438 60.761719 226.984375 59.90625 229.125 59.90625 C 231.386719 59.90625 233.28125 60.699219 234.871094 62.289062 C 236.464844 63.878906 237.257812 65.773438 237.257812 67.972656 C 237.257812 70.296875 236.464844 72.253906 234.933594 73.902344 C 233.40625 75.554688 231.507812 76.347656 229.308594 76.347656 C 227.042969 76.347656 225.148438 75.554688 223.617188 73.964844 C 222.027344 72.4375 221.234375 70.480469 221.234375 68.21875 M 223.3125 68.21875 C 223.3125 69.992188 223.863281 71.519531 225.027344 72.742188 C 226.1875 73.964844 227.59375 74.578125 229.308594 74.578125 C 230.957031 74.578125 232.367188 73.964844 233.527344 72.742188 C 234.691406 71.519531 235.238281 69.992188 235.238281 68.21875 C 235.238281 66.386719 234.691406 64.855469 233.527344 63.695312 C 232.367188 62.535156 230.957031 61.921875 229.183594 61.921875 C 227.59375 61.921875 226.25 62.535156 225.085938 63.757812 C 223.925781 64.917969 223.3125 66.445312 223.3125 68.21875 M 206.738281 75.980469 L 204.71875 75.980469 L 204.71875 55.441406 L 206.738281 55.441406 L 206.738281 64.671875 L 216.523438 64.671875 L 216.523438 55.441406 L 218.542969 55.441406 L 218.542969 76.042969 L 216.523438 76.042969 L 216.523438 66.628906 L 206.738281 66.628906 Z M 206.738281 75.980469 " fill-opacity="1" fill-rule="nonzero"/><path fill="#000000" d="M 309.980469 44.195312 L 314.261719 44.195312 C 314.261719 45.480469 314.875 46.394531 315.976562 47.070312 C 317.074219 47.742188 318.726562 48.046875 320.867188 48.046875 C 323.191406 48.046875 324.90625 47.742188 326.066406 47.191406 C 327.230469 46.640625 327.839844 45.785156 327.839844 44.625 C 327.839844 43.277344 325.945312 42.238281 322.089844 41.566406 C 321.96875 41.566406 321.90625 41.507812 321.785156 41.507812 C 317.074219 40.710938 314.078125 39.855469 312.792969 38.9375 C 311.511719 38.023438 310.835938 36.617188 310.835938 34.78125 C 310.835938 32.824219 311.753906 31.238281 313.527344 30.136719 C 315.300781 29.035156 317.808594 28.484375 320.988281 28.484375 C 324.292969 28.484375 326.800781 29.035156 328.511719 30.074219 C 330.226562 31.113281 331.082031 32.703125 331.203125 34.78125 L 327.105469 34.78125 C 326.921875 33.621094 326.371094 32.703125 325.394531 32.152344 C 324.414062 31.601562 323.007812 31.296875 321.113281 31.296875 C 319.09375 31.296875 317.503906 31.542969 316.464844 32.152344 C 315.425781 32.703125 314.875 33.5 314.875 34.539062 C 314.875 35.882812 317.074219 36.921875 321.539062 37.714844 C 321.722656 37.777344 321.90625 37.777344 322.03125 37.777344 C 322.214844 37.839844 322.457031 37.839844 322.824219 37.898438 C 326.3125 38.511719 328.390625 39.0625 329.1875 39.550781 C 330.101562 40.101562 330.777344 40.773438 331.203125 41.507812 C 331.632812 42.238281 331.878906 43.15625 331.878906 44.195312 C 331.878906 46.394531 330.960938 48.046875 329.0625 49.207031 C 327.167969 50.371094 324.414062 50.917969 320.804688 50.917969 C 317.199219 50.917969 314.445312 50.371094 312.671875 49.207031 C 310.898438 48.167969 309.980469 46.457031 309.980469 44.195312 M 284.84375 39.734375 C 284.84375 42.179688 285.578125 44.132812 287.167969 45.722656 C 288.695312 47.253906 290.714844 48.046875 293.101562 48.046875 C 295.546875 48.046875 297.503906 47.253906 299.09375 45.722656 C 300.621094 44.195312 301.417969 42.179688 301.417969 39.792969 C 301.417969 37.347656 300.621094 35.394531 299.09375 33.804688 C 297.566406 32.214844 295.546875 31.480469 293.160156 31.480469 C 290.714844 31.480469 288.757812 32.277344 287.226562 33.804688 C 285.636719 35.332031 284.84375 37.347656 284.84375 39.734375 M 293.160156 28.546875 C 297.074219 28.546875 300.132812 29.523438 302.335938 31.480469 C 304.539062 33.4375 305.636719 36.1875 305.636719 39.734375 C 305.636719 43.277344 304.539062 46.03125 302.335938 47.984375 C 300.132812 49.941406 297.074219 50.917969 293.160156 50.917969 C 289.246094 50.917969 286.1875 49.941406 283.988281 47.984375 C 281.785156 46.03125 280.683594 43.277344 280.683594 39.734375 C 280.683594 36.1875 281.785156 33.4375 283.988281 31.480469 C 286.128906 29.523438 289.183594 28.546875 293.160156 28.546875 M 240.011719 32.765625 C 240.867188 31.417969 242.027344 30.378906 243.375 29.648438 C 244.71875 28.914062 246.308594 28.609375 248.023438 28.609375 C 250.101562 28.609375 251.875 28.976562 253.28125 29.769531 C 254.75 30.5625 255.789062 31.726562 256.523438 33.253906 C 257.6875 31.601562 259.03125 30.441406 260.4375 29.707031 C 261.847656 28.976562 263.558594 28.609375 265.453125 28.609375 C 268.328125 28.609375 270.59375 29.402344 272.183594 30.929688 C 273.773438 32.460938 274.566406 34.597656 274.566406 37.347656 L 274.566406 50.492188 L 270.53125 50.492188 L 270.53125 38.386719 C 270.53125 36.066406 270.042969 34.355469 269.0625 33.191406 C 268.085938 32.03125 266.617188 31.417969 264.71875 31.417969 C 262.578125 31.417969 260.804688 32.09375 259.460938 33.4375 C 258.113281 34.78125 257.441406 36.492188 257.441406 38.632812 L 257.441406 50.429688 L 253.34375 50.429688 L 253.34375 38.386719 C 253.34375 36.066406 252.855469 34.355469 251.875 33.191406 C 250.898438 32.03125 249.429688 31.417969 247.535156 31.417969 C 245.394531 31.417969 243.621094 32.09375 242.210938 33.4375 C 240.867188 34.78125 240.132812 36.492188 240.132812 38.632812 L 240.132812 50.429688 L 235.972656 50.429688 L 235.972656 35.945312 C 235.972656 35.027344 235.972656 33.988281 235.914062 32.824219 C 235.851562 31.664062 235.789062 30.378906 235.667969 29.035156 L 239.765625 29.035156 Z M 227.65625 29.035156 L 227.65625 43.523438 C 227.65625 44.378906 227.65625 45.417969 227.71875 46.640625 C 227.777344 47.800781 227.839844 49.085938 227.960938 50.429688 L 223.800781 50.429688 L 223.558594 46.761719 C 222.457031 48.230469 221.171875 49.269531 219.765625 49.878906 C 218.359375 50.554688 216.648438 50.859375 214.6875 50.859375 C 211.265625 50.859375 208.757812 50.0625 207.105469 48.414062 C 205.515625 46.824219 204.660156 44.257812 204.660156 40.832031 L 204.660156 29.035156 L 208.757812 29.035156 L 208.757812 41.015625 C 208.757812 43.402344 209.308594 45.113281 210.40625 46.273438 C 211.507812 47.433594 213.160156 48.046875 215.421875 48.046875 C 217.6875 48.046875 219.582031 47.375 221.113281 45.96875 C 222.640625 44.625 223.375 42.851562 223.375 40.773438 L 223.375 29.035156 Z M 176.644531 44.195312 L 180.925781 44.195312 C 180.925781 45.480469 181.539062 46.394531 182.640625 47.070312 C 183.742188 47.742188 185.390625 48.046875 187.53125 48.046875 C 189.855469 48.046875 191.570312 47.742188 192.730469 47.191406 C 193.894531 46.640625 194.503906 45.785156 194.503906 44.625 C 194.503906 43.277344 192.609375 42.238281 188.757812 41.566406 C 188.632812 41.566406 188.574219 41.507812 188.449219 41.507812 C 183.742188 40.710938 180.742188 39.855469 179.460938 38.9375 C 178.175781 38.023438 177.503906 36.617188 177.503906 34.78125 C 177.503906 32.824219 178.417969 31.238281 180.195312 30.136719 C 181.96875 29.035156 184.476562 28.484375 187.65625 28.484375 C 190.957031 28.484375 193.464844 29.035156 195.179688 30.074219 C 196.890625 31.113281 197.746094 32.703125 197.871094 34.78125 L 193.773438 34.78125 C 193.589844 33.621094 193.039062 32.703125 192.058594 32.152344 C 191.082031 31.601562 189.671875 31.296875 187.777344 31.296875 C 185.757812 31.296875 184.167969 31.542969 183.128906 32.152344 C 182.089844 32.703125 181.539062 33.5 181.539062 34.539062 C 181.539062 35.882812 183.742188 36.921875 188.207031 37.714844 C 188.390625 37.777344 188.574219 37.777344 188.695312 37.777344 C 188.878906 37.839844 189.125 37.839844 189.492188 37.898438 C 192.976562 38.511719 195.054688 39.0625 195.851562 39.550781 C 196.769531 40.101562 197.441406 40.773438 197.871094 41.507812 C 198.296875 42.238281 198.542969 43.15625 198.542969 44.195312 C 198.542969 46.394531 197.625 48.046875 195.730469 49.207031 C 193.832031 50.371094 191.082031 50.917969 187.472656 50.917969 C 183.863281 50.917969 181.109375 50.371094 179.335938 49.207031 C 177.5625 48.167969 176.644531 46.457031 176.644531 44.195312 M 147.53125 50.429688 L 147.53125 35.945312 C 147.53125 35.027344 147.472656 33.988281 147.472656 32.824219 C 147.410156 31.664062 147.347656 30.378906 147.226562 29.035156 L 151.324219 29.035156 L 151.570312 32.765625 C 152.609375 31.296875 153.894531 30.257812 155.363281 29.585938 C 156.828125 28.914062 158.664062 28.609375 160.867188 28.609375 C 164.046875 28.609375 166.433594 29.402344 168.023438 30.929688 C 169.613281 32.460938 170.40625 34.78125 170.40625 37.839844 L 170.40625 50.492188 L 166.308594 50.492188 L 166.308594 38.386719 C 166.308594 36.003906 165.757812 34.230469 164.71875 33.070312 C 163.679688 31.96875 162.027344 31.359375 159.886719 31.359375 C 157.441406 31.359375 155.421875 32.03125 153.953125 33.316406 C 152.488281 34.597656 151.753906 36.371094 151.753906 38.570312 L 151.753906 50.371094 L 147.53125 50.371094 Z M 134.078125 19.746094 L 138.417969 19.746094 L 138.417969 50.429688 L 134.078125 50.429688 Z M 134.078125 19.746094 " fill-opacity="1" fill-rule="nonzero"/><path fill="#000000" d="M 87.042969 49.207031 C 87.042969 45.847656 84.351562 43.09375 80.988281 43.09375 C 77.625 43.09375 74.933594 45.847656 74.933594 49.207031 C 74.933594 52.570312 77.625 55.320312 80.988281 55.320312 C 84.351562 55.320312 87.042969 52.570312 87.042969 49.207031 " fill-opacity="1" fill-rule="nonzero"/><path fill="#ef781a" d="M 69.429688 50.003906 L 41.046875 39.121094 L 41.046875 61.800781 L 69.429688 52.449219 L 69.429688 49.878906 Z M 69.429688 50.003906 " fill-opacity="1" fill-rule="nonzero"/><path fill="#000000" d="M 69.429688 46.152344 L 69.429688 49.878906 L 72.667969 41.566406 L 38.785156 28.609375 L 35.542969 37.042969 L 41.046875 39.121094 L 41.046875 35.578125 Z M 69.429688 46.152344 " fill-opacity="1" fill-rule="nonzero"/><path fill="#ef781a" d="M 78.050781 36.859375 L 88.9375 8.496094 L 66.246094 8.496094 L 75.605469 36.859375 L 78.113281 36.859375 Z M 78.050781 36.859375 " fill-opacity="1" fill-rule="nonzero"/><path fill="#000000" d="M 81.90625 36.859375 L 78.113281 36.859375 L 86.492188 40.039062 L 99.457031 6.234375 L 91.019531 2.996094 L 88.9375 8.496094 L 92.425781 8.496094 Z M 81.90625 36.859375 " fill-opacity="1" fill-rule="nonzero"/><path fill="#ef781a" d="M 94.382812 40.40625 L 122.761719 51.285156 L 122.761719 28.609375 L 94.320312 37.960938 L 94.320312 40.527344 Z M 94.382812 40.40625 " fill-opacity="1" fill-rule="nonzero"/><path fill="#000000" d="M 94.320312 44.257812 L 94.320312 40.527344 L 91.140625 48.839844 L 125.023438 61.800781 L 128.207031 53.363281 L 122.761719 51.285156 L 122.761719 54.769531 Z M 94.320312 44.257812 " fill-opacity="1" fill-rule="nonzero"/><path fill="#ef781a" d="M 87.652344 62.71875 L 76.765625 91.082031 L 99.457031 91.082031 L 90.101562 62.65625 L 87.53125 62.65625 Z M 87.652344 62.71875 " fill-opacity="1" fill-rule="nonzero"/><path fill="#000000" d="M 83.738281 62.65625 L 87.53125 62.65625 L 79.214844 59.476562 L 66.246094 93.34375 L 74.625 96.582031 L 76.765625 91.082031 L 73.21875 91.082031 Z M 83.738281 62.65625 " fill-opacity="1" fill-rule="nonzero"/><path fill="#000000" d="M 133.035156 81.667969 L 331.9375 81.667969 L 331.9375 82.890625 L 133.035156 82.890625 Z M 133.035156 81.667969 " fill-opacity="1" fill-rule="nonzero"/><g fill="#000000" fill-opacity="1"><g transform="translate(60.756856, 123.379702)"><g><path d="M 4.1875 -5.375 L 3.515625 0 L 0.8125 0 L 2.671875 -15.1875 L 7.296875 -15.1875 C 8.148438 -15.1875 8.882812 -15.082031 9.5 -14.875 C 10.125 -14.675781 10.632812 -14.390625 11.03125 -14.015625 C 11.4375 -13.640625 11.734375 -13.195312 11.921875 -12.6875 C 12.117188 -12.1875 12.21875 -11.628906 12.21875 -11.015625 C 12.21875 -10.203125 12.085938 -9.453125 11.828125 -8.765625 C 11.578125 -8.078125 11.195312 -7.484375 10.6875 -6.984375 C 10.175781 -6.484375 9.535156 -6.085938 8.765625 -5.796875 C 8.003906 -5.515625 7.109375 -5.375 6.078125 -5.375 Z M 5.140625 -13.09375 L 4.4375 -7.5 L 6.359375 -7.5 C 6.890625 -7.5 7.347656 -7.578125 7.734375 -7.734375 C 8.128906 -7.898438 8.457031 -8.128906 8.71875 -8.421875 C 8.976562 -8.710938 9.171875 -9.054688 9.296875 -9.453125 C 9.421875 -9.859375 9.484375 -10.300781 9.484375 -10.78125 C 9.484375 -11.125 9.429688 -11.4375 9.328125 -11.71875 C 9.234375 -12.007812 9.082031 -12.253906 8.875 -12.453125 C 8.675781 -12.648438 8.421875 -12.804688 8.109375 -12.921875 C 7.804688 -13.035156 7.445312 -13.09375 7.03125 -13.09375 Z M 5.140625 -13.09375 "/></g></g></g><g fill="#000000" fill-opacity="1"><g transform="translate(73.792935, 123.379702)"><g><path d="M 15.1875 -8.609375 C 15.1875 -7.773438 15.09375 -6.976562 14.90625 -6.21875 C 14.726562 -5.457031 14.460938 -4.75 14.109375 -4.09375 C 13.765625 -3.445312 13.347656 -2.859375 12.859375 -2.328125 C 12.378906 -1.804688 11.832031 -1.359375 11.21875 -0.984375 C 10.613281 -0.617188 9.957031 -0.332031 9.25 -0.125 C 8.550781 0.0703125 7.8125 0.171875 7.03125 0.171875 C 6.0625 0.171875 5.191406 0 4.421875 -0.34375 C 3.648438 -0.6875 2.992188 -1.160156 2.453125 -1.765625 C 1.910156 -2.367188 1.492188 -3.078125 1.203125 -3.890625 C 0.921875 -4.710938 0.78125 -5.601562 0.78125 -6.5625 C 0.78125 -7.40625 0.867188 -8.207031 1.046875 -8.96875 C 1.234375 -9.726562 1.5 -10.429688 1.84375 -11.078125 C 2.195312 -11.734375 2.613281 -12.320312 3.09375 -12.84375 C 3.582031 -13.375 4.128906 -13.828125 4.734375 -14.203125 C 5.347656 -14.578125 6.007812 -14.863281 6.71875 -15.0625 C 7.425781 -15.257812 8.171875 -15.359375 8.953125 -15.359375 C 9.921875 -15.359375 10.789062 -15.1875 11.5625 -14.84375 C 12.332031 -14.5 12.984375 -14.023438 13.515625 -13.421875 C 14.054688 -12.828125 14.46875 -12.117188 14.75 -11.296875 C 15.039062 -10.472656 15.1875 -9.578125 15.1875 -8.609375 Z M 12.40625 -8.546875 C 12.40625 -9.234375 12.316406 -9.859375 12.140625 -10.421875 C 11.972656 -10.984375 11.722656 -11.460938 11.390625 -11.859375 C 11.066406 -12.265625 10.671875 -12.570312 10.203125 -12.78125 C 9.734375 -13 9.203125 -13.109375 8.609375 -13.109375 C 7.859375 -13.109375 7.171875 -12.953125 6.546875 -12.640625 C 5.929688 -12.335938 5.398438 -11.898438 4.953125 -11.328125 C 4.515625 -10.765625 4.175781 -10.082031 3.9375 -9.28125 C 3.695312 -8.488281 3.578125 -7.601562 3.578125 -6.625 C 3.578125 -5.9375 3.660156 -5.3125 3.828125 -4.75 C 3.992188 -4.195312 4.238281 -3.722656 4.5625 -3.328125 C 4.882812 -2.929688 5.273438 -2.625 5.734375 -2.40625 C 6.203125 -2.195312 6.734375 -2.09375 7.328125 -2.09375 C 8.097656 -2.09375 8.789062 -2.242188 9.40625 -2.546875 C 10.03125 -2.859375 10.5625 -3.296875 11 -3.859375 C 11.445312 -4.421875 11.789062 -5.097656 12.03125 -5.890625 C 12.28125 -6.679688 12.40625 -7.566406 12.40625 -8.546875 Z M 12.40625 -8.546875 "/></g></g></g><g fill="#000000" fill-opacity="1"><g transform="translate(90.074868, 123.379702)"><g><path d="M 4.25 -5.984375 L 3.515625 0 L 0.8125 0 L 2.671875 -15.1875 L 6.984375 -15.1875 C 7.859375 -15.1875 8.609375 -15.09375 9.234375 -14.90625 C 9.859375 -14.726562 10.367188 -14.472656 10.765625 -14.140625 C 11.171875 -13.804688 11.46875 -13.40625 11.65625 -12.9375 C 11.84375 -12.476562 11.9375 -11.972656 11.9375 -11.421875 C 11.9375 -10.835938 11.851562 -10.285156 11.6875 -9.765625 C 11.519531 -9.253906 11.28125 -8.785156 10.96875 -8.359375 C 10.664062 -7.941406 10.289062 -7.570312 9.84375 -7.25 C 9.394531 -6.9375 8.890625 -6.695312 8.328125 -6.53125 C 8.484375 -6.425781 8.628906 -6.300781 8.765625 -6.15625 C 8.898438 -6.019531 9.015625 -5.851562 9.109375 -5.65625 L 11.828125 0 L 9.375 0 C 9.144531 0 8.945312 -0.046875 8.78125 -0.140625 C 8.625 -0.234375 8.507812 -0.367188 8.4375 -0.546875 L 6.203125 -5.46875 C 6.117188 -5.65625 6.015625 -5.785156 5.890625 -5.859375 C 5.773438 -5.941406 5.585938 -5.984375 5.328125 -5.984375 Z M 5.140625 -13.09375 L 4.5 -7.9375 L 6.078125 -7.9375 C 6.617188 -7.9375 7.085938 -8.015625 7.484375 -8.171875 C 7.878906 -8.328125 8.203125 -8.539062 8.453125 -8.8125 C 8.710938 -9.09375 8.90625 -9.414062 9.03125 -9.78125 C 9.15625 -10.15625 9.21875 -10.554688 9.21875 -10.984375 C 9.21875 -11.648438 9.015625 -12.164062 8.609375 -12.53125 C 8.203125 -12.90625 7.578125 -13.09375 6.734375 -13.09375 Z M 5.140625 -13.09375 "/></g></g></g><g fill="#000000" fill-opacity="1"><g transform="translate(103.678183, 123.379702)"><g><path d="M 12.53125 -15.1875 L 12.234375 -12.953125 L 8.078125 -12.953125 L 6.484375 0 L 3.765625 0 L 5.359375 -12.953125 L 1.1875 -12.953125 L 1.453125 -15.1875 Z M 12.53125 -15.1875 "/></g></g></g><g fill="#000000" fill-opacity="1"><g transform="translate(116.094503, 123.379702)"><g><path d="M 13 0 L 10.890625 0 C 10.648438 0 10.457031 -0.0546875 10.3125 -0.171875 C 10.175781 -0.285156 10.09375 -0.4375 10.0625 -0.625 L 9.421875 -3.796875 L 3.765625 -3.796875 L 2.359375 -0.625 C 2.273438 -0.457031 2.144531 -0.3125 1.96875 -0.1875 C 1.800781 -0.0625 1.609375 0 1.390625 0 L -0.75 0 L 6.59375 -15.1875 L 9.375 -15.1875 Z M 4.609375 -5.71875 L 9.03125 -5.71875 L 8 -10.921875 C 7.945312 -11.171875 7.890625 -11.4375 7.828125 -11.71875 C 7.773438 -12 7.726562 -12.3125 7.6875 -12.65625 C 7.550781 -12.3125 7.414062 -11.988281 7.28125 -11.6875 C 7.15625 -11.394531 7.035156 -11.132812 6.921875 -10.90625 Z M 4.609375 -5.71875 "/></g></g></g><g fill="#000000" fill-opacity="1"><g transform="translate(130.475143, 123.379702)"><g><path d="M 3.734375 -2.265625 L 9.25 -2.265625 L 9 0 L 0.734375 0 L 2.609375 -15.1875 L 5.328125 -15.1875 Z M 3.734375 -2.265625 "/></g></g></g><g fill="#000000" fill-opacity="1"><g transform="translate(141.378825, 123.379702)"><g/></g></g><g fill="#000000" fill-opacity="1"><g transform="translate(146.337025, 123.379702)"><g><path d="M 14.234375 -8.609375 C 14.234375 -7.347656 14.03125 -6.1875 13.625 -5.125 C 13.21875 -4.070312 12.648438 -3.164062 11.921875 -2.40625 C 11.191406 -1.644531 10.328125 -1.050781 9.328125 -0.625 C 8.335938 -0.207031 7.253906 0 6.078125 0 L 0.734375 0 L 2.609375 -15.1875 L 7.96875 -15.1875 C 8.9375 -15.1875 9.804688 -15.019531 10.578125 -14.6875 C 11.347656 -14.363281 12.003906 -13.910156 12.546875 -13.328125 C 13.085938 -12.753906 13.503906 -12.0625 13.796875 -11.25 C 14.085938 -10.445312 14.234375 -9.566406 14.234375 -8.609375 Z M 11.4375 -8.546875 C 11.4375 -9.234375 11.347656 -9.851562 11.171875 -10.40625 C 11.003906 -10.957031 10.757812 -11.425781 10.4375 -11.8125 C 10.125 -12.207031 9.734375 -12.507812 9.265625 -12.71875 C 8.804688 -12.925781 8.28125 -13.03125 7.6875 -13.03125 L 5.078125 -13.03125 L 3.734375 -2.171875 L 6.359375 -2.171875 C 7.117188 -2.171875 7.8125 -2.316406 8.4375 -2.609375 C 9.0625 -2.910156 9.59375 -3.332031 10.03125 -3.875 C 10.476562 -4.425781 10.820312 -5.097656 11.0625 -5.890625 C 11.3125 -6.679688 11.4375 -7.566406 11.4375 -8.546875 Z M 11.4375 -8.546875 "/></g></g></g><g fill="#000000" fill-opacity="1"><g transform="translate(161.673566, 123.379702)"><g><path d="M 15.1875 -8.609375 C 15.1875 -7.773438 15.09375 -6.976562 14.90625 -6.21875 C 14.726562 -5.457031 14.460938 -4.75 14.109375 -4.09375 C 13.765625 -3.445312 13.347656 -2.859375 12.859375 -2.328125 C 12.378906 -1.804688 11.832031 -1.359375 11.21875 -0.984375 C 10.613281 -0.617188 9.957031 -0.332031 9.25 -0.125 C 8.550781 0.0703125 7.8125 0.171875 7.03125 0.171875 C 6.0625 0.171875 5.191406 0 4.421875 -0.34375 C 3.648438 -0.6875 2.992188 -1.160156 2.453125 -1.765625 C 1.910156 -2.367188 1.492188 -3.078125 1.203125 -3.890625 C 0.921875 -4.710938 0.78125 -5.601562 0.78125 -6.5625 C 0.78125 -7.40625 0.867188 -8.207031 1.046875 -8.96875 C 1.234375 -9.726562 1.5 -10.429688 1.84375 -11.078125 C 2.195312 -11.734375 2.613281 -12.320312 3.09375 -12.84375 C 3.582031 -13.375 4.128906 -13.828125 4.734375 -14.203125 C 5.347656 -14.578125 6.007812 -14.863281 6.71875 -15.0625 C 7.425781 -15.257812 8.171875 -15.359375 8.953125 -15.359375 C 9.921875 -15.359375 10.789062 -15.1875 11.5625 -14.84375 C 12.332031 -14.5 12.984375 -14.023438 13.515625 -13.421875 C 14.054688 -12.828125 14.46875 -12.117188 14.75 -11.296875 C 15.039062 -10.472656 15.1875 -9.578125 15.1875 -8.609375 Z M 12.40625 -8.546875 C 12.40625 -9.234375 12.316406 -9.859375 12.140625 -10.421875 C 11.972656 -10.984375 11.722656 -11.460938 11.390625 -11.859375 C 11.066406 -12.265625 10.671875 -12.570312 10.203125 -12.78125 C 9.734375 -13 9.203125 -13.109375 8.609375 -13.109375 C 7.859375 -13.109375 7.171875 -12.953125 6.546875 -12.640625 C 5.929688 -12.335938 5.398438 -11.898438 4.953125 -11.328125 C 4.515625 -10.765625 4.175781 -10.082031 3.9375 -9.28125 C 3.695312 -8.488281 3.578125 -7.601562 3.578125 -6.625 C 3.578125 -5.9375 3.660156 -5.3125 3.828125 -4.75 C 3.992188 -4.195312 4.238281 -3.722656 4.5625 -3.328125 C 4.882812 -2.929688 5.273438 -2.625 5.734375 -2.40625 C 6.203125 -2.195312 6.734375 -2.09375 7.328125 -2.09375 C 8.097656 -2.09375 8.789062 -2.242188 9.40625 -2.546875 C 10.03125 -2.859375 10.5625 -3.296875 11 -3.859375 C 11.445312 -4.421875 11.789062 -5.097656 12.03125 -5.890625 C 12.28125 -6.679688 12.40625 -7.566406 12.40625 -8.546875 Z M 12.40625 -8.546875 "/></g></g></g><g fill="#000000" fill-opacity="1"><g transform="translate(177.955498, 123.379702)"><g/></g></g><g fill="#000000" fill-opacity="1"><g transform="translate(182.913698, 123.379702)"><g><path d="M 7.125 -2.140625 C 7.550781 -2.140625 7.921875 -2.171875 8.234375 -2.234375 C 8.554688 -2.304688 8.832031 -2.394531 9.0625 -2.5 C 9.300781 -2.601562 9.503906 -2.710938 9.671875 -2.828125 C 9.847656 -2.941406 10 -3.050781 10.125 -3.15625 C 10.25 -3.269531 10.359375 -3.359375 10.453125 -3.421875 C 10.554688 -3.484375 10.65625 -3.515625 10.75 -3.515625 C 10.832031 -3.515625 10.898438 -3.5 10.953125 -3.46875 C 11.015625 -3.4375 11.0625 -3.398438 11.09375 -3.359375 L 12.046875 -2.171875 C 11.390625 -1.421875 10.613281 -0.84375 9.71875 -0.4375 C 8.832031 -0.03125 7.8125 0.171875 6.65625 0.171875 C 5.726562 0.171875 4.898438 0.00390625 4.171875 -0.328125 C 3.441406 -0.660156 2.820312 -1.117188 2.3125 -1.703125 C 1.8125 -2.296875 1.429688 -2.992188 1.171875 -3.796875 C 0.910156 -4.609375 0.78125 -5.488281 0.78125 -6.4375 C 0.78125 -7.3125 0.875 -8.140625 1.0625 -8.921875 C 1.25 -9.703125 1.515625 -10.421875 1.859375 -11.078125 C 2.210938 -11.742188 2.632812 -12.335938 3.125 -12.859375 C 3.613281 -13.390625 4.15625 -13.84375 4.75 -14.21875 C 5.351562 -14.59375 6 -14.875 6.6875 -15.0625 C 7.375 -15.257812 8.09375 -15.359375 8.84375 -15.359375 C 9.394531 -15.359375 9.898438 -15.304688 10.359375 -15.203125 C 10.816406 -15.109375 11.226562 -14.96875 11.59375 -14.78125 C 11.96875 -14.601562 12.300781 -14.382812 12.59375 -14.125 C 12.894531 -13.875 13.160156 -13.585938 13.390625 -13.265625 L 12.453125 -12.140625 C 12.378906 -12.054688 12.296875 -11.984375 12.203125 -11.921875 C 12.109375 -11.859375 11.992188 -11.828125 11.859375 -11.828125 C 11.703125 -11.828125 11.550781 -11.890625 11.40625 -12.015625 C 11.269531 -12.140625 11.09375 -12.273438 10.875 -12.421875 C 10.664062 -12.578125 10.390625 -12.71875 10.046875 -12.84375 C 9.710938 -12.96875 9.269531 -13.03125 8.71875 -13.03125 C 7.988281 -13.03125 7.3125 -12.878906 6.6875 -12.578125 C 6.0625 -12.285156 5.515625 -11.859375 5.046875 -11.296875 C 4.585938 -10.742188 4.226562 -10.078125 3.96875 -9.296875 C 3.707031 -8.523438 3.578125 -7.648438 3.578125 -6.671875 C 3.578125 -5.960938 3.664062 -5.328125 3.84375 -4.765625 C 4.019531 -4.210938 4.265625 -3.738281 4.578125 -3.34375 C 4.890625 -2.957031 5.265625 -2.660156 5.703125 -2.453125 C 6.140625 -2.242188 6.613281 -2.140625 7.125 -2.140625 Z M 7.125 -2.140625 "/></g></g></g><g fill="#000000" fill-opacity="1"><g transform="translate(196.496007, 123.379702)"><g><path d="M 15.1875 -8.609375 C 15.1875 -7.773438 15.09375 -6.976562 14.90625 -6.21875 C 14.726562 -5.457031 14.460938 -4.75 14.109375 -4.09375 C 13.765625 -3.445312 13.347656 -2.859375 12.859375 -2.328125 C 12.378906 -1.804688 11.832031 -1.359375 11.21875 -0.984375 C 10.613281 -0.617188 9.957031 -0.332031 9.25 -0.125 C 8.550781 0.0703125 7.8125 0.171875 7.03125 0.171875 C 6.0625 0.171875 5.191406 0 4.421875 -0.34375 C 3.648438 -0.6875 2.992188 -1.160156 2.453125 -1.765625 C 1.910156 -2.367188 1.492188 -3.078125 1.203125 -3.890625 C 0.921875 -4.710938 0.78125 -5.601562 0.78125 -6.5625 C 0.78125 -7.40625 0.867188 -8.207031 1.046875 -8.96875 C 1.234375 -9.726562 1.5 -10.429688 1.84375 -11.078125 C 2.195312 -11.734375 2.613281 -12.320312 3.09375 -12.84375 C 3.582031 -13.375 4.128906 -13.828125 4.734375 -14.203125 C 5.347656 -14.578125 6.007812 -14.863281 6.71875 -15.0625 C 7.425781 -15.257812 8.171875 -15.359375 8.953125 -15.359375 C 9.921875 -15.359375 10.789062 -15.1875 11.5625 -14.84375 C 12.332031 -14.5 12.984375 -14.023438 13.515625 -13.421875 C 14.054688 -12.828125 14.46875 -12.117188 14.75 -11.296875 C 15.039062 -10.472656 15.1875 -9.578125 15.1875 -8.609375 Z M 12.40625 -8.546875 C 12.40625 -9.234375 12.316406 -9.859375 12.140625 -10.421875 C 11.972656 -10.984375 11.722656 -11.460938 11.390625 -11.859375 C 11.066406 -12.265625 10.671875 -12.570312 10.203125 -12.78125 C 9.734375 -13 9.203125 -13.109375 8.609375 -13.109375 C 7.859375 -13.109375 7.171875 -12.953125 6.546875 -12.640625 C 5.929688 -12.335938 5.398438 -11.898438 4.953125 -11.328125 C 4.515625 -10.765625 4.175781 -10.082031 3.9375 -9.28125 C 3.695312 -8.488281 3.578125 -7.601562 3.578125 -6.625 C 3.578125 -5.9375 3.660156 -5.3125 3.828125 -4.75 C 3.992188 -4.195312 4.238281 -3.722656 4.5625 -3.328125 C 4.882812 -2.929688 5.273438 -2.625 5.734375 -2.40625 C 6.203125 -2.195312 6.734375 -2.09375 7.328125 -2.09375 C 8.097656 -2.09375 8.789062 -2.242188 9.40625 -2.546875 C 10.03125 -2.859375 10.5625 -3.296875 11 -3.859375 C 11.445312 -4.421875 11.789062 -5.097656 12.03125 -5.890625 C 12.28125 -6.679688 12.40625 -7.566406 12.40625 -8.546875 Z M 12.40625 -8.546875 "/></g></g></g><g fill="#000000" fill-opacity="1"><g transform="translate(212.777944, 123.379702)"><g><path d="M 15.1875 -8.609375 C 15.1875 -7.773438 15.09375 -6.976562 14.90625 -6.21875 C 14.726562 -5.457031 14.460938 -4.75 14.109375 -4.09375 C 13.765625 -3.445312 13.347656 -2.859375 12.859375 -2.328125 C 12.378906 -1.804688 11.832031 -1.359375 11.21875 -0.984375 C 10.613281 -0.617188 9.957031 -0.332031 9.25 -0.125 C 8.550781 0.0703125 7.8125 0.171875 7.03125 0.171875 C 6.0625 0.171875 5.191406 0 4.421875 -0.34375 C 3.648438 -0.6875 2.992188 -1.160156 2.453125 -1.765625 C 1.910156 -2.367188 1.492188 -3.078125 1.203125 -3.890625 C 0.921875 -4.710938 0.78125 -5.601562 0.78125 -6.5625 C 0.78125 -7.40625 0.867188 -8.207031 1.046875 -8.96875 C 1.234375 -9.726562 1.5 -10.429688 1.84375 -11.078125 C 2.195312 -11.734375 2.613281 -12.320312 3.09375 -12.84375 C 3.582031 -13.375 4.128906 -13.828125 4.734375 -14.203125 C 5.347656 -14.578125 6.007812 -14.863281 6.71875 -15.0625 C 7.425781 -15.257812 8.171875 -15.359375 8.953125 -15.359375 C 9.921875 -15.359375 10.789062 -15.1875 11.5625 -14.84375 C 12.332031 -14.5 12.984375 -14.023438 13.515625 -13.421875 C 14.054688 -12.828125 14.46875 -12.117188 14.75 -11.296875 C 15.039062 -10.472656 15.1875 -9.578125 15.1875 -8.609375 Z M 12.40625 -8.546875 C 12.40625 -9.234375 12.316406 -9.859375 12.140625 -10.421875 C 11.972656 -10.984375 11.722656 -11.460938 11.390625 -11.859375 C 11.066406 -12.265625 10.671875 -12.570312 10.203125 -12.78125 C 9.734375 -13 9.203125 -13.109375 8.609375 -13.109375 C 7.859375 -13.109375 7.171875 -12.953125 6.546875 -12.640625 C 5.929688 -12.335938 5.398438 -11.898438 4.953125 -11.328125 C 4.515625 -10.765625 4.175781 -10.082031 3.9375 -9.28125 C 3.695312 -8.488281 3.578125 -7.601562 3.578125 -6.625 C 3.578125 -5.9375 3.660156 -5.3125 3.828125 -4.75 C 3.992188 -4.195312 4.238281 -3.722656 4.5625 -3.328125 C 4.882812 -2.929688 5.273438 -2.625 5.734375 -2.40625 C 6.203125 -2.195312 6.734375 -2.09375 7.328125 -2.09375 C 8.097656 -2.09375 8.789062 -2.242188 9.40625 -2.546875 C 10.03125 -2.859375 10.5625 -3.296875 11 -3.859375 C 11.445312 -4.421875 11.789062 -5.097656 12.03125 -5.890625 C 12.28125 -6.679688 12.40625 -7.566406 12.40625 -8.546875 Z M 12.40625 -8.546875 "/></g></g></g><g fill="#000000" fill-opacity="1"><g transform="translate(229.059882, 123.379702)"><g><path d="M 4.1875 -5.375 L 3.515625 0 L 0.8125 0 L 2.671875 -15.1875 L 7.296875 -15.1875 C 8.148438 -15.1875 8.882812 -15.082031 9.5 -14.875 C 10.125 -14.675781 10.632812 -14.390625 11.03125 -14.015625 C 11.4375 -13.640625 11.734375 -13.195312 11.921875 -12.6875 C 12.117188 -12.1875 12.21875 -11.628906 12.21875 -11.015625 C 12.21875 -10.203125 12.085938 -9.453125 11.828125 -8.765625 C 11.578125 -8.078125 11.195312 -7.484375 10.6875 -6.984375 C 10.175781 -6.484375 9.535156 -6.085938 8.765625 -5.796875 C 8.003906 -5.515625 7.109375 -5.375 6.078125 -5.375 Z M 5.140625 -13.09375 L 4.4375 -7.5 L 6.359375 -7.5 C 6.890625 -7.5 7.347656 -7.578125 7.734375 -7.734375 C 8.128906 -7.898438 8.457031 -8.128906 8.71875 -8.421875 C 8.976562 -8.710938 9.171875 -9.054688 9.296875 -9.453125 C 9.421875 -9.859375 9.484375 -10.300781 9.484375 -10.78125 C 9.484375 -11.125 9.429688 -11.4375 9.328125 -11.71875 C 9.234375 -12.007812 9.082031 -12.253906 8.875 -12.453125 C 8.675781 -12.648438 8.421875 -12.804688 8.109375 -12.921875 C 7.804688 -13.035156 7.445312 -13.09375 7.03125 -13.09375 Z M 5.140625 -13.09375 "/></g></g></g><g fill="#000000" fill-opacity="1"><g transform="translate(242.095959, 123.379702)"><g><path d="M 11.46875 -15.1875 L 11.1875 -13.015625 L 5.078125 -13.015625 L 4.546875 -8.703125 L 9.359375 -8.703125 L 9.09375 -6.609375 L 4.28125 -6.609375 L 3.734375 -2.171875 L 9.875 -2.171875 L 9.609375 0 L 0.734375 0 L 2.609375 -15.1875 Z M 11.46875 -15.1875 "/></g></g></g><g fill="#000000" fill-opacity="1"><g transform="translate(254.039587, 123.379702)"><g><path d="M 4.25 -5.984375 L 3.515625 0 L 0.8125 0 L 2.671875 -15.1875 L 6.984375 -15.1875 C 7.859375 -15.1875 8.609375 -15.09375 9.234375 -14.90625 C 9.859375 -14.726562 10.367188 -14.472656 10.765625 -14.140625 C 11.171875 -13.804688 11.46875 -13.40625 11.65625 -12.9375 C 11.84375 -12.476562 11.9375 -11.972656 11.9375 -11.421875 C 11.9375 -10.835938 11.851562 -10.285156 11.6875 -9.765625 C 11.519531 -9.253906 11.28125 -8.785156 10.96875 -8.359375 C 10.664062 -7.941406 10.289062 -7.570312 9.84375 -7.25 C 9.394531 -6.9375 8.890625 -6.695312 8.328125 -6.53125 C 8.484375 -6.425781 8.628906 -6.300781 8.765625 -6.15625 C 8.898438 -6.019531 9.015625 -5.851562 9.109375 -5.65625 L 11.828125 0 L 9.375 0 C 9.144531 0 8.945312 -0.046875 8.78125 -0.140625 C 8.625 -0.234375 8.507812 -0.367188 8.4375 -0.546875 L 6.203125 -5.46875 C 6.117188 -5.65625 6.015625 -5.785156 5.890625 -5.859375 C 5.773438 -5.941406 5.585938 -5.984375 5.328125 -5.984375 Z M 5.140625 -13.09375 L 4.5 -7.9375 L 6.078125 -7.9375 C 6.617188 -7.9375 7.085938 -8.015625 7.484375 -8.171875 C 7.878906 -8.328125 8.203125 -8.539062 8.453125 -8.8125 C 8.710938 -9.09375 8.90625 -9.414062 9.03125 -9.78125 C 9.15625 -10.15625 9.21875 -10.554688 9.21875 -10.984375 C 9.21875 -11.648438 9.015625 -12.164062 8.609375 -12.53125 C 8.203125 -12.90625 7.578125 -13.09375 6.734375 -13.09375 Z M 5.140625 -13.09375 "/></g></g></g><g fill="#000000" fill-opacity="1"><g transform="translate(267.642905, 123.379702)"><g><path d="M 13 0 L 10.890625 0 C 10.648438 0 10.457031 -0.0546875 10.3125 -0.171875 C 10.175781 -0.285156 10.09375 -0.4375 10.0625 -0.625 L 9.421875 -3.796875 L 3.765625 -3.796875 L 2.359375 -0.625 C 2.273438 -0.457031 2.144531 -0.3125 1.96875 -0.1875 C 1.800781 -0.0625 1.609375 0 1.390625 0 L -0.75 0 L 6.59375 -15.1875 L 9.375 -15.1875 Z M 4.609375 -5.71875 L 9.03125 -5.71875 L 8 -10.921875 C 7.945312 -11.171875 7.890625 -11.4375 7.828125 -11.71875 C 7.773438 -12 7.726562 -12.3125 7.6875 -12.65625 C 7.550781 -12.3125 7.414062 -11.988281 7.28125 -11.6875 C 7.15625 -11.394531 7.035156 -11.132812 6.921875 -10.90625 Z M 4.609375 -5.71875 "/></g></g></g><g fill="#000000" fill-opacity="1"><g transform="translate(282.023558, 123.379702)"><g><path d="M 14.234375 -8.609375 C 14.234375 -7.347656 14.03125 -6.1875 13.625 -5.125 C 13.21875 -4.070312 12.648438 -3.164062 11.921875 -2.40625 C 11.191406 -1.644531 10.328125 -1.050781 9.328125 -0.625 C 8.335938 -0.207031 7.253906 0 6.078125 0 L 0.734375 0 L 2.609375 -15.1875 L 7.96875 -15.1875 C 8.9375 -15.1875 9.804688 -15.019531 10.578125 -14.6875 C 11.347656 -14.363281 12.003906 -13.910156 12.546875 -13.328125 C 13.085938 -12.753906 13.503906 -12.0625 13.796875 -11.25 C 14.085938 -10.445312 14.234375 -9.566406 14.234375 -8.609375 Z M 11.4375 -8.546875 C 11.4375 -9.234375 11.347656 -9.851562 11.171875 -10.40625 C 11.003906 -10.957031 10.757812 -11.425781 10.4375 -11.8125 C 10.125 -12.207031 9.734375 -12.507812 9.265625 -12.71875 C 8.804688 -12.925781 8.28125 -13.03125 7.6875 -13.03125 L 5.078125 -13.03125 L 3.734375 -2.171875 L 6.359375 -2.171875 C 7.117188 -2.171875 7.8125 -2.316406 8.4375 -2.609375 C 9.0625 -2.910156 9.59375 -3.332031 10.03125 -3.875 C 10.476562 -4.425781 10.820312 -5.097656 11.0625 -5.890625 C 11.3125 -6.679688 11.4375 -7.566406 11.4375 -8.546875 Z M 11.4375 -8.546875 "/></g></g></g><g fill="#000000" fill-opacity="1"><g transform="translate(297.360098, 123.379702)"><g><path d="M 15.1875 -8.609375 C 15.1875 -7.773438 15.09375 -6.976562 14.90625 -6.21875 C 14.726562 -5.457031 14.460938 -4.75 14.109375 -4.09375 C 13.765625 -3.445312 13.347656 -2.859375 12.859375 -2.328125 C 12.378906 -1.804688 11.832031 -1.359375 11.21875 -0.984375 C 10.613281 -0.617188 9.957031 -0.332031 9.25 -0.125 C 8.550781 0.0703125 7.8125 0.171875 7.03125 0.171875 C 6.0625 0.171875 5.191406 0 4.421875 -0.34375 C 3.648438 -0.6875 2.992188 -1.160156 2.453125 -1.765625 C 1.910156 -2.367188 1.492188 -3.078125 1.203125 -3.890625 C 0.921875 -4.710938 0.78125 -5.601562 0.78125 -6.5625 C 0.78125 -7.40625 0.867188 -8.207031 1.046875 -8.96875 C 1.234375 -9.726562 1.5 -10.429688 1.84375 -11.078125 C 2.195312 -11.734375 2.613281 -12.320312 3.09375 -12.84375 C 3.582031 -13.375 4.128906 -13.828125 4.734375 -14.203125 C 5.347656 -14.578125 6.007812 -14.863281 6.71875 -15.0625 C 7.425781 -15.257812 8.171875 -15.359375 8.953125 -15.359375 C 9.921875 -15.359375 10.789062 -15.1875 11.5625 -14.84375 C 12.332031 -14.5 12.984375 -14.023438 13.515625 -13.421875 C 14.054688 -12.828125 14.46875 -12.117188 14.75 -11.296875 C 15.039062 -10.472656 15.1875 -9.578125 15.1875 -8.609375 Z M 12.40625 -8.546875 C 12.40625 -9.234375 12.316406 -9.859375 12.140625 -10.421875 C 11.972656 -10.984375 11.722656 -11.460938 11.390625 -11.859375 C 11.066406 -12.265625 10.671875 -12.570312 10.203125 -12.78125 C 9.734375 -13 9.203125 -13.109375 8.609375 -13.109375 C 7.859375 -13.109375 7.171875 -12.953125 6.546875 -12.640625 C 5.929688 -12.335938 5.398438 -11.898438 4.953125 -11.328125 C 4.515625 -10.765625 4.175781 -10.082031 3.9375 -9.28125 C 3.695312 -8.488281 3.578125 -7.601562 3.578125 -6.625 C 3.578125 -5.9375 3.660156 -5.3125 3.828125 -4.75 C 3.992188 -4.195312 4.238281 -3.722656 4.5625 -3.328125 C 4.882812 -2.929688 5.273438 -2.625 5.734375 -2.40625 C 6.203125 -2.195312 6.734375 -2.09375 7.328125 -2.09375 C 8.097656 -2.09375 8.789062 -2.242188 9.40625 -2.546875 C 10.03125 -2.859375 10.5625 -3.296875 11 -3.859375 C 11.445312 -4.421875 11.789062 -5.097656 12.03125 -5.890625 C 12.28125 -6.679688 12.40625 -7.566406 12.40625 -8.546875 Z M 12.40625 -8.546875 "/></g></g></g></svg>